<svg width="108" height="108" viewBox="0 0 108 108" fill="none" xmlns="http://www.w3.org/2000/svg">
<rect width="108" height="108" fill="#A55FFF"/>
<path d="M48.0519 51.3194H46.4048C43.2512 51.3194 42 49.329 42 47.2498C42 45.1707 43.2002 43.0788 46.4048 43.0788H48.0519V37.919C48.0519 34.5467 50.5033 33 53.0057 33C55.5082 33 57.9596 34.534 57.9596 37.919V43.0788H60.9089C64.1136 43.0788 65.3137 45.2087 65.3137 47.2498C65.3137 49.291 64.0625 51.3194 60.9089 51.3194H57.9596V63.6296C57.9596 65.1129 58.7129 65.4678 59.5555 65.5186C60.3088 65.5693 60.7557 65.3157 61.7516 65.3157C63.3986 65.3157 64.803 66.406 65.1477 68.0414C65.5946 70.0826 64.7009 71.7687 63.2964 72.6562C62.1473 73.4041 60.245 74 58.5469 74C51.8949 74 48.0519 71.325 48.0519 63.8197V51.3067V51.3194Z" fill="white"/>
</svg>
