<svg width="108" height="108" viewBox="0 0 108 108" fill="none" xmlns="http://www.w3.org/2000/svg">
<g clip-path="url(#clip0_2818_505)">
<rect width="108" height="108" fill="#A55FFF"/>
<rect width="108" height="108" fill="#A55FFF"/>
<path d="M38.3659 55.4877C39.0593 55.4877 39.5525 55.9953 39.5525 56.6294C39.5525 57.0105 37.942 62.3784 37.7403 62.8012C37.5843 63.1391 37.2487 63.3088 36.8673 63.3088C36.2181 63.3088 36.0164 62.9277 35.9502 62.4841C35.7044 60.8347 36.33 58.1716 36.9792 56.7351C37.3148 55.9953 37.7844 55.4877 38.3659 55.4877ZM39.6408 53.1625C39.2153 53.1625 38.6779 52.8246 38.6779 52.4018C38.6779 51.5771 38.9695 50.1406 40.0426 50.1406C40.736 50.1406 41.2056 50.6274 41.2056 51.2824C41.2056 51.8957 40.3326 53.164 39.6392 53.164L39.6408 53.1625Z" fill="#F0F0F0"/>
<path d="M43.1312 59.0815C44.3619 57.7284 49.5984 50.3301 51.3428 50.3301C52.1039 50.3301 52.8414 50.9434 52.9533 51.6624C53.2212 53.1212 50.1342 57.6867 49.9545 60.1385C50.5817 60.4347 51.1852 60.6877 51.3192 61.4067C51.4311 61.9992 50.7598 62.2939 50.2224 62.2939C49.507 62.2939 48.8357 62.0617 48.3424 61.5958C46.4845 59.8839 48.0289 56.5018 48.3204 55.2544C47.0897 56.3529 43.2636 63.1171 41.7193 63.1171C40.8242 63.1171 40.0851 62.4622 39.9512 61.6375C39.5257 59.2274 42.7924 50.4551 45.6352 50.4551C46.3963 50.4551 47.0219 50.8779 47.1574 51.6177C47.3371 52.5689 46.9116 53.0334 45.9488 52.9709C45.1876 53.8581 43.3313 57.8966 43.1296 59.0801L43.1312 59.0815Z" fill="#F0F0F0"/>
<path d="M62.2412 48.5557C63.8517 48.5557 65.24 49.5069 65.24 51.1131C65.24 52.3814 63.6957 55.4464 62.1073 55.4464C61.7496 55.4464 61.4139 55.1502 61.4139 54.7914C61.4139 54.3478 62.7565 52.9738 62.7565 51.3245C62.7565 51.0282 62.4429 51.0074 62.2192 51.0074C59.0187 51.0074 55.618 56.6298 55.618 59.2096C55.618 60.0134 55.752 61.3234 56.8929 61.3234C59.4662 61.3234 61.7937 57.5602 62.8448 57.5602C63.4263 57.5602 63.8517 58.047 63.8517 58.5531C63.8517 60.5195 58.9289 63.4149 56.8929 63.4149C54.2754 63.4149 52.999 61.2594 52.999 59.0815C52.999 54.9805 57.3184 48.5557 62.2397 48.5557H62.2412Z" fill="#F0F0F0"/>
<path d="M72.265 45.3638C72.8244 45.3638 73.3839 45.7866 73.3839 46.3567C73.3839 46.5889 73.294 46.8435 73.138 47.0325C69.2899 52.064 66.2233 58.9324 66.2233 64.0055C66.2233 64.5757 65.9097 64.9984 65.2841 64.9984C64.367 64.9984 64.2551 63.9207 64.2094 63.2434C63.9179 59.1006 67.9016 45.3608 72.265 45.3608V45.3638Z" fill="#F0F0F0"/>
<path d="M71.8852 58.7434C71.8852 59.1245 71.9293 59.525 72.4225 59.525C74.7942 59.525 77.659 56.6505 78.0829 56.6505C78.5068 56.6505 79 57.0315 79 57.4543C79 59.3776 74.167 61.9782 72.1972 61.9782C70.385 61.9782 69.0645 60.7516 69.0645 59.0397C69.0645 55.5727 72.6668 50.6484 76.6284 50.6484C77.9931 50.6484 78.844 51.4523 78.844 52.7414C78.844 55.342 74.7043 58.7658 71.9514 58.407C71.9293 58.5127 71.8836 58.6392 71.8836 58.7449L71.8852 58.7434ZM76.7624 52.9513C76.7624 52.3588 76.069 52.7608 75.7775 52.9096C75.0163 53.2907 74.3907 53.8192 73.8754 54.4533C72.6227 56.0387 72.6668 56.6088 74.7926 55.2988C75.8216 54.6438 76.7624 53.7551 76.7624 52.9528V52.9513Z" fill="#F0F0F0"/>
<path d="M36.4857 46.2717C35.0517 46.5277 30.1887 47.7544 29.2795 47.7544C28.6208 47.7544 28.0015 47.2601 28.0015 46.6379C27.9999 43.4359 42.3557 43.0147 44.2151 43.0147C45.3387 43.0147 49.1553 42.7586 49.1553 44.3871C49.1553 44.9186 48.6716 45.4485 48.0901 45.4485C47.5858 45.4485 47.3731 45.0823 46.7916 45.0823C44.8738 45.0823 42.4518 45.4306 40.534 45.6867C38.9267 45.907 32.2231 60.3449 32.2231 62.9261C32.2231 63.4576 32.7463 63.5112 32.7463 64.0054C32.7463 64.4996 32.2814 64.8837 31.7771 64.8837C30.3636 64.8837 30.0532 63.6943 30.0532 62.5957C30.0532 60.071 32.0687 54.3057 33.0945 51.9626C33.9864 49.9128 35.2061 48.2113 36.5424 46.4176L36.4841 46.2717H36.4857Z" fill="#F0F0F0"/>
</g>
<defs>
<clipPath id="clip0_2818_505">
<rect width="108" height="108" fill="white"/>
</clipPath>
</defs>
</svg>
