<svg width="108" height="108" viewBox="0 0 108 108" fill="none" xmlns="http://www.w3.org/2000/svg">
<g clip-path="url(#clip0_2818_505)">
<rect width="108" height="108" fill="#A55FFF"/>
<rect width="108" height="108" fill="#A55FFF"/>
<path d="M39.3659 53.4877C40.0593 53.4877 40.5525 53.9953 40.5525 54.6294C40.5525 55.0105 38.942 60.3784 38.7403 60.8012C38.5843 61.1391 38.2487 61.3088 37.8673 61.3088C37.2181 61.3088 37.0164 60.9277 36.9502 60.4841C36.7044 58.8347 37.33 56.1716 37.9792 54.7351C38.3148 53.9953 38.7844 53.4877 39.3659 53.4877ZM40.6408 51.1625C40.2153 51.1625 39.6779 50.8246 39.6779 50.4018C39.6779 49.5771 39.9695 48.1406 41.0426 48.1406C41.736 48.1406 42.2056 48.6274 42.2056 49.2824C42.2056 49.8957 41.3326 51.164 40.6392 51.164L40.6408 51.1625Z" fill="#F0F0F0"/>
<path d="M44.1312 57.0815C45.3619 55.7284 50.5984 48.3301 52.3428 48.3301C53.1039 48.3301 53.8414 48.9434 53.9533 49.6624C54.2212 51.1212 51.1342 55.6867 50.9545 58.1385C51.5817 58.4347 52.1852 58.6877 52.3192 59.4067C52.4311 59.9992 51.7598 60.2939 51.2224 60.2939C50.507 60.2939 49.8357 60.0617 49.3424 59.5958C47.4845 57.8839 49.0289 54.5018 49.3204 53.2544C48.0897 54.3529 44.2636 61.1171 42.7193 61.1171C41.8242 61.1171 41.0851 60.4622 40.9512 59.6375C40.5257 57.2274 43.7924 48.4551 46.6352 48.4551C47.3963 48.4551 48.0219 48.8779 48.1574 49.6177C48.3371 50.5689 47.9116 51.0334 46.9488 50.9709C46.1876 51.8581 44.3313 55.8966 44.1296 57.0801L44.1312 57.0815Z" fill="#F0F0F0"/>
<path d="M63.2412 46.5557C64.8517 46.5557 66.24 47.5069 66.24 49.1131C66.24 50.3814 64.6957 53.4464 63.1073 53.4464C62.7496 53.4464 62.4139 53.1502 62.4139 52.7914C62.4139 52.3478 63.7565 50.9738 63.7565 49.3245C63.7565 49.0282 63.4429 49.0074 63.2192 49.0074C60.0187 49.0074 56.618 54.6298 56.618 57.2096C56.618 58.0134 56.752 59.3234 57.8929 59.3234C60.4662 59.3234 62.7937 55.5602 63.8448 55.5602C64.4263 55.5602 64.8517 56.047 64.8517 56.5531C64.8517 58.5195 59.9289 61.4149 57.8929 61.4149C55.2754 61.4149 53.999 59.2594 53.999 57.0815C53.999 52.9805 58.3184 46.5557 63.2397 46.5557H63.2412Z" fill="#F0F0F0"/>
<path d="M73.265 43.3638C73.8244 43.3638 74.3839 43.7866 74.3839 44.3567C74.3839 44.5889 74.294 44.8435 74.138 45.0325C70.2899 50.064 67.2233 56.9324 67.2233 62.0055C67.2233 62.5757 66.9097 62.9984 66.2841 62.9984C65.367 62.9984 65.2551 61.9207 65.2094 61.2434C64.9179 57.1006 68.9016 43.3608 73.265 43.3608V43.3638Z" fill="#F0F0F0"/>
<path d="M72.8852 56.7434C72.8852 57.1245 72.9293 57.525 73.4225 57.525C75.7942 57.525 78.659 54.6505 79.0829 54.6505C79.5068 54.6505 80 55.0315 80 55.4543C80 57.3776 75.167 59.9782 73.1972 59.9782C71.385 59.9782 70.0645 58.7516 70.0645 57.0397C70.0645 53.5727 73.6668 48.6484 77.6284 48.6484C78.9931 48.6484 79.844 49.4523 79.844 50.7414C79.844 53.342 75.7043 56.7658 72.9514 56.407C72.9293 56.5127 72.8836 56.6392 72.8836 56.7449L72.8852 56.7434ZM77.7624 50.9513C77.7624 50.3588 77.069 50.7608 76.7775 50.9096C76.0163 51.2907 75.3907 51.8192 74.8754 52.4533C73.6227 54.0387 73.6668 54.6088 75.7926 53.2988C76.8216 52.6438 77.7624 51.7551 77.7624 50.9528V50.9513Z" fill="#F0F0F0"/>
<path d="M37.4857 44.2717C36.0517 44.5277 31.1887 45.7544 30.2795 45.7544C29.6208 45.7544 29.0015 45.2601 29.0015 44.6379C28.9999 41.4359 43.3557 41.0147 45.2151 41.0147C46.3387 41.0147 50.1553 40.7586 50.1553 42.3871C50.1553 42.9186 49.6716 43.4485 49.0901 43.4485C48.5858 43.4485 48.3731 43.0823 47.7916 43.0823C45.8738 43.0823 43.4518 43.4306 41.534 43.6867C39.9267 43.907 33.2231 58.3449 33.2231 60.9261C33.2231 61.4576 33.7463 61.5112 33.7463 62.0054C33.7463 62.4996 33.2814 62.8837 32.7771 62.8837C31.3636 62.8837 31.0532 61.6943 31.0532 60.5957C31.0532 58.071 33.0687 52.3057 34.0945 49.9626C34.9864 47.9128 36.2061 46.2113 37.5424 44.4176L37.4841 44.2717H37.4857Z" fill="#F0F0F0"/>
</g>
<defs>
<clipPath id="clip0_2818_505">
<rect width="108" height="108" fill="white"/>
</clipPath>
</defs>
</svg>
