<svg width="375" height="812" viewBox="0 0 375 812" fill="none" xmlns="http://www.w3.org/2000/svg">
<rect width="375" height="812" fill="#202020"/>
<rect x="158" y="356" width="60" height="60" rx="20" fill="#A55FFF"/>
<path d="M183.63 384.346H182.37C179.957 384.346 179 382.814 179 381.214C179 379.615 179.918 378.005 182.37 378.005H183.63V374.035C183.63 371.44 185.506 370.25 187.421 370.25C189.336 370.25 191.211 371.43 191.211 374.035V378.005H193.468C195.92 378.005 196.838 379.644 196.838 381.214C196.838 382.785 195.881 384.346 193.468 384.346H191.211V393.818C191.211 394.959 191.787 395.232 192.432 395.271C193.009 395.31 193.351 395.115 194.112 395.115C195.373 395.115 196.447 395.954 196.711 397.212C197.053 398.783 196.369 400.08 195.295 400.763C194.415 401.339 192.96 401.797 191.661 401.797C186.571 401.797 183.63 399.739 183.63 393.964V384.336V384.346Z" fill="white"/>
</svg>
