<svg width="22" height="20" viewBox="0 0 22 20" fill="none" xmlns="http://www.w3.org/2000/svg">
<path d="M17.875 5.99998V3.99998H15.875V2.5H17.875V0.5H19.375V2.5H21.375V3.99998H19.375V5.99998H17.875ZM2.18271 19.5C1.67759 19.5 1.25003 19.325 0.900031 18.975C0.550031 18.625 0.375031 18.1974 0.375031 17.6923V6.3077C0.375031 5.80257 0.550031 5.375 0.900031 5.025C1.25003 4.675 1.67759 4.5 2.18271 4.5H5.23656L7.08656 2.5H13.125V3.99998H7.74038L5.90576 5.99998H2.18271C2.09296 5.99998 2.01923 6.02883 1.96153 6.08653C1.90385 6.14423 1.87501 6.21795 1.87501 6.3077V17.6923C1.87501 17.782 1.90385 17.8557 1.96153 17.9134C2.01923 17.9711 2.09296 18 2.18271 18H17.5673C17.657 18 17.7308 17.9711 17.7885 17.9134C17.8462 17.8557 17.875 17.782 17.875 17.6923V8.74995H19.375V17.6923C19.375 18.1974 19.2 18.625 18.85 18.975C18.5 19.325 18.0724 19.5 17.5673 19.5H2.18271ZM9.87501 16.1153C11.0224 16.1153 11.9952 15.7163 12.7933 14.9182C13.5913 14.1202 13.9904 13.1474 13.9904 12C13.9904 10.8525 13.5913 9.87979 12.7933 9.08173C11.9952 8.28366 11.0224 7.88463 9.87501 7.88463C8.72757 7.88463 7.75482 8.28366 6.95676 9.08173C6.15867 9.87979 5.75963 10.8525 5.75963 12C5.75963 13.1474 6.15867 14.1202 6.95676 14.9182C7.75482 15.7163 8.72757 16.1153 9.87501 16.1153ZM9.87501 14.6154C9.13654 14.6154 8.51602 14.3641 8.01346 13.8615C7.51089 13.359 7.25961 12.7384 7.25961 12C7.25961 11.2615 7.51089 10.641 8.01346 10.1384C8.51602 9.63586 9.13654 9.38458 9.87501 9.38458C10.6135 9.38458 11.234 9.63586 11.7365 10.1384C12.2391 10.641 12.4904 11.2615 12.4904 12C12.4904 12.7384 12.2391 13.359 11.7365 13.8615C11.234 14.3641 10.6135 14.6154 9.87501 14.6154Z" fill="#848484"/>
</svg>
