<svg width="16" height="14" viewBox="0 0 16 14" fill="none" xmlns="http://www.w3.org/2000/svg">
<path id="Vector" d="M13.44 13.3898C12.76 13.3898 12.03 13.0898 11.57 12.8998C11.38 12.8198 11.15 12.7198 10.91 12.5898C10.14 12.8898 9.32001 13.0398 8.49001 13.0398H7.40001C3.85001 13.0398 0.960007 10.2998 0.960007 6.93984C0.960007 3.57984 3.85001 0.839844 7.41001 0.839844H8.50001C12.05 0.839844 14.94 3.57984 14.94 6.93984C14.94 8.07984 14.61 9.17984 13.98 10.1398C14.11 10.3198 14.24 10.4898 14.38 10.6398C14.38 10.6398 14.4 10.6598 14.41 10.6698C14.64 10.9198 15.12 11.4398 15.03 12.1298C14.96 12.6198 14.63 12.9398 14.49 13.0498C14.18 13.2898 13.82 13.3798 13.45 13.3798L13.44 13.3898ZM10.97 11.3698L11.21 11.4998C11.5 11.6598 11.77 11.7898 11.99 11.8798C12.39 12.0398 13.44 12.4698 13.79 12.1898C13.84 12.1498 13.92 12.0598 13.93 11.9798C13.95 11.8098 13.71 11.5498 13.6 11.4198L13.57 11.3898C13.31 11.1098 13.06 10.7798 12.84 10.4198L12.64 10.0998L12.86 9.79984C13.49 8.95984 13.83 7.96984 13.83 6.93984C13.83 4.17984 11.44 1.93984 8.49001 1.93984H7.40001C4.46001 1.93984 2.06001 4.17984 2.06001 6.93984C2.06001 9.69984 4.45001 11.9398 7.40001 11.9398H8.49001C9.26001 11.9398 10.01 11.7798 10.72 11.4798L10.97 11.3698Z" fill="#848484"/>
</svg>
