<svg width="10" height="12" viewBox="0 0 10 12" fill="none" xmlns="http://www.w3.org/2000/svg">
<path d="M1.35419 11.4295C1.05954 11.4295 0.81013 11.3275 0.605963 11.1233C0.401796 10.9191 0.299713 10.6697 0.299713 10.3751V2.97127H1.1747V10.3751C1.1747 10.4199 1.19339 10.4611 1.23079 10.4985C1.26818 10.5359 1.30931 10.5546 1.35419 10.5546H7.00799V11.4295H1.35419ZM3.39584 9.3879C3.10118 9.3879 2.85177 9.28581 2.6476 9.08165C2.44344 8.87748 2.34137 8.62807 2.34137 8.33342V1.69242C2.34137 1.39777 2.44344 1.14836 2.6476 0.944189C2.85177 0.740023 3.10118 0.637939 3.39584 0.637939H8.28684C8.5815 0.637939 8.8309 0.740023 9.03507 0.944189C9.23924 1.14836 9.34132 1.39777 9.34132 1.69242V8.33342C9.34132 8.62807 9.23924 8.87748 9.03507 9.08165C8.8309 9.28581 8.5815 9.3879 8.28684 9.3879H3.39584ZM3.39584 8.51293H8.28684C8.33171 8.51293 8.37285 8.49422 8.41025 8.45682C8.44764 8.41943 8.46634 8.3783 8.46634 8.33342V1.69242C8.46634 1.64754 8.44764 1.6064 8.41025 1.56901C8.37285 1.53162 8.33171 1.51293 8.28684 1.51293H3.39584C3.35096 1.51293 3.30983 1.53162 3.27244 1.56901C3.23504 1.6064 3.21634 1.64754 3.21634 1.69242V8.33342C3.21634 8.3783 3.23504 8.41943 3.27244 8.45682C3.30983 8.49422 3.35096 8.51293 3.39584 8.51293Z" fill="#848484"/>
</svg>
