<svg width="24" height="24" viewBox="0 0 24 24" fill="none" xmlns="http://www.w3.org/2000/svg">
<g clip-path="url(#clip0_182_515)">
<path d="M11.1212 21.8945C10.4285 21.4123 9.41539 20.7059 8.21615 19.8088C6.34492 18.4296 5.41447 17.7343 4.79418 17.14C3.46054 15.8505 0.989694 13.4508 1.00003 9.88499C1.00003 8.77487 1.26883 6.00518 3.55359 4.24468C4.60809 3.43732 5.94173 3 7.30638 3C8.84678 3 10.3148 3.56067 11.4417 4.56987C11.6485 4.74928 11.8345 4.93991 12 5.14175C12.1654 4.95112 12.3515 4.76049 12.5582 4.56987C13.6851 3.56067 15.1531 3 16.6935 3C18.0582 3 19.3918 3.44853 20.4463 4.24468C22.8034 6.05003 22.9999 9.01035 22.9999 9.88499C23.0205 13.4508 20.5394 15.8505 19.2057 17.14C18.5854 17.7343 17.7067 18.3847 15.7838 19.8088C14.5742 20.6947 13.561 21.4123 12.8787 21.8945L12 22.5L11.1212 21.8945Z" fill="#FFDCF1"/>
<path d="M18.3879 6.77288C16.9471 5.69715 14.7607 5.7291 13.3501 6.9646C12.0806 8.08293 12 9.68055 11.9899 9.98942C11.9899 9.68055 11.8992 8.07228 10.6297 6.9646C9.21916 5.7291 7.0227 5.69715 5.59197 6.77288C4.09072 7.89122 4.00004 9.77641 4.00004 10.2663C3.98997 12.5669 5.73303 14.2178 6.77081 15.1977C7.22421 15.6343 8.00002 16.1882 9.55165 17.2959C10.5693 18.0308 11.4156 18.6059 12 19C12.5844 18.6059 13.4307 18.0201 14.4483 17.2959C15.9899 16.1882 16.7657 15.6237 17.2292 15.1977C18.267 14.2178 20.01 12.5669 20 10.2663C20 9.77641 19.9093 7.89122 18.408 6.77288H18.3879Z" fill="#E84989"/>
</g>
<defs>
<clipPath id="clip0_182_515">
<path d="M0 12C0 5.37258 5.37258 0 12 0C18.6274 0 24 5.37258 24 12V24H0V12Z" fill="white"/>
</clipPath>
</defs>
</svg>
