<svg width="24" height="24" viewBox="0 0 24 24" fill="none" xmlns="http://www.w3.org/2000/svg">
<rect width="24" height="24" fill="white"/>
<path fill-rule="evenodd" clip-rule="evenodd" d="M20.64 12.2047C20.64 11.5665 20.5827 10.9529 20.4764 10.3638H12V13.8451H16.8436C16.635 14.9701 16.0009 15.9233 15.0477 16.5615V18.8197H17.9564C19.6582 17.2529 20.64 14.9456 20.64 12.2047Z" fill="#4285F4"/>
<path fill-rule="evenodd" clip-rule="evenodd" d="M11.9999 21C14.4299 21 16.4672 20.1941 17.9562 18.8195L15.0476 16.5613C14.2417 17.1013 13.2108 17.4204 11.9999 17.4204C9.65579 17.4204 7.6717 15.8372 6.96397 13.71H3.95715V16.0418C5.43806 18.9831 8.4817 21 11.9999 21Z" fill="#34A853"/>
<path fill-rule="evenodd" clip-rule="evenodd" d="M6.96409 13.7103C6.78409 13.1703 6.68182 12.5935 6.68182 12.0003C6.68182 11.4071 6.78409 10.8303 6.96409 10.2903V7.9585H3.95727C3.34773 9.1735 3 10.548 3 12.0003C3 13.4526 3.34773 14.8271 3.95727 16.0421L6.96409 13.7103Z" fill="#FBBC05"/>
<path fill-rule="evenodd" clip-rule="evenodd" d="M11.9999 6.57955C13.3212 6.57955 14.5076 7.03364 15.4403 7.92545L18.0217 5.34409C16.4631 3.89182 14.4258 3 11.9999 3C8.4817 3 5.43806 5.01682 3.95715 7.95818L6.96397 10.29C7.6717 8.16273 9.65579 6.57955 11.9999 6.57955Z" fill="#EA4335"/>
</svg>
