<svg width="20" height="20" viewBox="0 0 20 20" fill="none" xmlns="http://www.w3.org/2000/svg">
<path d="M10 9.74343C9.19794 9.74343 8.51132 9.45784 7.94014 8.88668C7.36895 8.3155 7.08336 7.62887 7.08336 6.8268C7.08336 6.02472 7.36895 5.33809 7.94014 4.76693C8.51132 4.19575 9.19794 3.91016 10 3.91016C10.8021 3.91016 11.4887 4.19575 12.0599 4.76693C12.6311 5.33809 12.9167 6.02472 12.9167 6.8268C12.9167 7.62887 12.6311 8.3155 12.0599 8.88668C11.4887 9.45784 10.8021 9.74343 10 9.74343ZM3.75003 16.0896V14.237C3.75003 13.8289 3.86088 13.451 4.08257 13.1032C4.30425 12.7555 4.60045 12.4881 4.97118 12.3012C5.7949 11.8973 6.62583 11.5944 7.46397 11.3925C8.30211 11.1906 9.14745 11.0896 10 11.0896C10.8526 11.0896 11.6979 11.1906 12.5361 11.3925C13.3742 11.5944 14.2051 11.8973 15.0288 12.3012C15.3996 12.4881 15.6958 12.7555 15.9174 13.1032C16.1391 13.451 16.25 13.8289 16.25 14.237V16.0896H3.75003ZM5.00001 14.8396H15V14.237C15 14.0682 14.9511 13.912 14.8534 13.7683C14.7556 13.6246 14.6229 13.5073 14.4551 13.4165C13.7372 13.0629 13.0051 12.795 12.2589 12.6128C11.5127 12.4307 10.7598 12.3396 10 12.3396C9.24026 12.3396 8.48729 12.4307 7.74109 12.6128C6.9949 12.795 6.26283 13.0629 5.54488 13.4165C5.37715 13.5073 5.24441 13.6246 5.14666 13.7683C5.04889 13.912 5.00001 14.0682 5.00001 14.237V14.8396ZM10 8.49347C10.4583 8.49347 10.8507 8.33028 11.1771 8.00389C11.5035 7.6775 11.6667 7.28514 11.6667 6.8268C11.6667 6.36847 11.5035 5.97611 11.1771 5.64972C10.8507 5.32333 10.4583 5.16014 10 5.16014C9.54168 5.16014 9.14932 5.32333 8.82293 5.64972C8.49654 5.97611 8.33334 6.36847 8.33334 6.8268C8.33334 7.28514 8.49654 7.6775 8.82293 8.00389C9.14932 8.33028 9.54168 8.49347 10 8.49347Z" fill="#848484"/>
</svg>
