<svg width="24" height="24" viewBox="0 0 24 24" fill="none" xmlns="http://www.w3.org/2000/svg">
<g clip-path="url(#clip0_182_504)">
<path d="M21.6212 14.2692C22.8759 8.95317 19.5835 3.62654 14.2675 2.37184C8.95143 1.11715 3.6248 4.40951 2.3701 9.72554C1.1154 15.0416 4.40776 20.3682 9.7238 21.6229C15.0398 22.8776 20.3665 19.5852 21.6212 14.2692Z" fill="#FFD85A"/>
<path d="M15.4101 10.4101C15.8701 11.3501 16.5101 12.9301 16.6701 14.9901C16.8501 17.1801 16.4101 18.9301 16.0801 19.9501C15.4701 20.2001 14.2201 20.7601 14.2901 21.2201C14.3701 21.7101 15.9401 21.8501 16.9001 21.8201C17.9501 21.7801 19.5301 21.4901 19.5701 20.9801C19.5801 20.8401 19.4901 20.4501 17.8501 19.8801C18.2201 18.8301 18.6901 17.0501 18.5801 14.8201C18.4701 12.7501 17.8901 11.1301 17.4501 10.1401C16.7701 10.2301 16.0901 10.3101 15.4201 10.4001L15.4101 10.4101Z" fill="#4AB7ED"/>
<path d="M16.38 12.29C17.4956 12.29 18.4 11.3856 18.4 10.27C18.4 9.15439 17.4956 8.25 16.38 8.25C15.2644 8.25 14.36 9.15439 14.36 10.27C14.36 11.3856 15.2644 12.29 16.38 12.29Z" fill="#222222"/>
<path d="M8.46995 10.4101C8.00995 11.3501 7.36995 12.9301 7.20995 14.9901C7.02995 17.1801 7.46995 18.9301 7.79995 19.9501C8.40995 20.2001 9.65995 20.7601 9.58995 21.2201C9.50995 21.7101 7.93995 21.8501 6.97995 21.8201C5.92995 21.7801 4.34995 21.4901 4.30995 20.9801C4.29995 20.8401 4.38995 20.4501 6.02995 19.8801C5.65995 18.8301 5.18995 17.0501 5.29995 14.8201C5.40995 12.7501 5.98995 11.1301 6.42995 10.1401C7.10995 10.2301 7.78995 10.3101 8.45995 10.4001L8.46995 10.4101Z" fill="#4AB7ED"/>
<path d="M9.94995 13.3698C10.07 12.4398 10.86 11.7398 11.79 11.7198C12.72 11.7098 13.53 12.3798 13.68 13.2998" stroke="#222222" stroke-linecap="round" stroke-linejoin="round"/>
<path d="M17.5 9.27982C17.75 9.56982 17.98 10.0698 17.79 10.4898C17.78 10.5098 17.63 10.8498 17.43 10.8398C17.21 10.8298 17.22 10.4098 16.86 9.95982C16.46 9.45982 15.98 9.39982 16.01 9.15982C16.03 8.94982 16.4 8.84982 16.42 8.83982C16.97 8.68982 17.46 9.23982 17.5 9.27982Z" fill="white"/>
<path d="M7.57005 12.29C8.68566 12.29 9.59005 11.3856 9.59005 10.27C9.59005 9.15439 8.68566 8.25 7.57005 8.25C6.45443 8.25 5.55005 9.15439 5.55005 10.27C5.55005 11.3856 6.45443 12.29 7.57005 12.29Z" fill="#222222"/>
<path d="M8.68006 9.27982C8.93006 9.56982 9.16006 10.0698 8.97006 10.4898C8.96006 10.5098 8.81006 10.8498 8.61006 10.8398C8.39006 10.8298 8.40006 10.4098 8.04006 9.95982C7.64006 9.45982 7.16006 9.39982 7.19006 9.15982C7.21006 8.94982 7.58006 8.84982 7.60006 8.83982C8.15006 8.68982 8.64006 9.23982 8.68006 9.27982Z" fill="white"/>
</g>
<defs>
<clipPath id="clip0_182_504">
<path d="M0 12C0 5.37258 5.37258 0 12 0C18.6274 0 24 5.37258 24 12V24H0V12Z" fill="white"/>
</clipPath>
</defs>
</svg>
