<svg width="24" height="24" viewBox="0 0 24 24" fill="none" xmlns="http://www.w3.org/2000/svg">
<g clip-path="url(#clip0_182_498)">
<path d="M18.9918 19.2711C22.8541 15.4088 22.8541 9.14683 18.9918 5.28455C15.1295 1.42226 8.86753 1.42226 5.00525 5.28455C1.14296 9.14683 1.14296 15.4088 5.00525 19.2711C8.86753 23.1334 15.1295 23.1334 18.9918 19.2711Z" fill="#FFD85A"/>
<path d="M4.99004 11.0198C6.97004 10.9998 9.26004 11.1098 11.78 11.4598C14.53 11.8398 16.94 12.4298 18.96 13.0498C18.37 16.8898 14.74 19.5598 10.92 18.9798C7.14004 18.4098 4.47004 14.8398 4.99004 11.0198Z" fill="#E84989"/>
<path d="M14.15 9.4799C15.3 8.2499 16.91 7.9499 17.95 8.5899C18.66 9.0299 18.92 9.7899 19.01 10.1199" stroke="#222222" stroke-linecap="round" stroke-linejoin="round"/>
<path d="M10.25 9.08019C9.46 7.51019 7.95 6.81019 6.87 7.20019C6.13 7.47019 5.76 8.18019 5.63 8.48019" stroke="#222222" stroke-linecap="round" stroke-linejoin="round"/>
</g>
<defs>
<clipPath id="clip0_182_498">
<path d="M0 12C0 5.37258 5.37258 0 12 0C18.6274 0 24 5.37258 24 12V24H0V12Z" fill="white"/>
</clipPath>
</defs>
</svg>
