<svg width="90" height="90" viewBox="0 0 90 90" fill="none" xmlns="http://www.w3.org/2000/svg">
<g clip-path="url(#clip0_488_92)">
<path d="M67.33 36.76C66.36 36.76 65.42 36.9 64.52 37.16C63.95 32.01 59.59 28 54.29 28C51.13 28 48.3 29.43 46.41 31.68C44.54 28.39 40.81 26.14 36.49 26.14C30.46 26.14 25.56 30.53 25.32 36.03C24.31 35.65 23.23 35.44 22.09 35.44C16.72 35.44 12.36 40.05 12.36 45.74C12.36 51.43 16.71 56.04 22.09 56.04C23.67 56.04 25.16 55.63 26.49 54.92C30.28 58.95 37.97 61.7 46.85 61.7C54.08 61.7 60.52 59.87 64.71 57.02C65.54 57.24 66.42 57.37 67.32 57.37C73.01 57.37 77.62 52.76 77.62 47.07C77.62 41.38 73.01 36.77 67.32 36.77L67.33 36.76Z" fill="white"/>
<path d="M46.86 63.19C38.38 63.19 30.6 60.73 26.2 56.71C24.89 57.25 23.52 57.53 22.11 57.53C15.92 57.53 10.88 52.24 10.88 45.74C10.88 39.24 15.92 33.94 22.11 33.94C22.77 33.94 23.42 34 24.07 34.13C25.22 28.69 30.35 24.65 36.5 24.65C40.53 24.65 44.25 26.41 46.63 29.35C48.75 27.53 51.46 26.51 54.3 26.51C59.77 26.51 64.42 30.23 65.73 35.39C66.27 35.31 66.8 35.28 67.34 35.28C73.84 35.28 79.13 40.57 79.13 47.07C79.13 53.57 73.84 58.87 67.34 58.87C66.58 58.87 65.8 58.79 65.02 58.63C60.42 61.54 53.86 63.21 46.87 63.21L46.86 63.19ZM26.5 53.41C26.9 53.41 27.3 53.57 27.59 53.88C31.2 57.71 38.76 60.19 46.86 60.19C53.55 60.19 59.75 58.58 63.88 55.77C64.24 55.53 64.68 55.45 65.1 55.56C65.85 55.76 66.61 55.86 67.33 55.86C72.18 55.86 76.12 51.91 76.12 47.06C76.12 42.21 72.17 38.27 67.33 38.27C66.54 38.27 65.73 38.38 64.93 38.61C64.51 38.73 64.05 38.66 63.68 38.41C63.31 38.16 63.08 37.77 63.03 37.33C62.54 32.87 58.78 29.51 54.29 29.51C51.69 29.51 49.24 30.66 47.56 32.65C47.24 33.03 46.77 33.23 46.28 33.18C45.79 33.14 45.35 32.85 45.11 32.43C43.44 29.48 40.14 27.65 36.5 27.65C31.28 27.65 27.04 31.36 26.83 36.1C26.81 36.58 26.56 37.02 26.16 37.29C25.76 37.56 25.26 37.61 24.81 37.45C23.92 37.12 23.02 36.95 22.11 36.95C17.57 36.95 13.88 40.9 13.88 45.75C13.88 50.6 17.57 54.54 22.11 54.54C23.39 54.54 24.63 54.22 25.79 53.6C26.01 53.48 26.26 53.42 26.5 53.42V53.41Z" fill="#222222"/>
<path d="M9.18004 51.0601C9.18004 63.6401 17.34 74.3001 28.64 78.0701V83.7801H61.34V78.0701C72.65 74.3001 80.8 63.6401 80.8 51.0601H9.17004H9.18004Z" fill="#CEE3FC"/>
<path d="M61.3499 85.27H28.6499C27.8199 85.27 27.1499 84.6 27.1499 83.77V79.1201C15.4599 74.7501 7.68994 63.61 7.68994 51.05C7.68994 50.22 8.35994 49.55 9.18994 49.55H80.8199C81.6499 49.55 82.3199 50.22 82.3199 51.05C82.3199 63.61 74.5399 74.7501 62.8599 79.1201V83.77C62.8599 84.6 62.1899 85.27 61.3599 85.27H61.3499ZM30.1399 82.27H59.8499V78.06C59.8499 77.41 60.2599 76.84 60.8799 76.64C71.4299 73.12 78.6699 63.56 79.2799 52.55H10.7299C11.3399 63.55 18.5799 73.12 29.1299 76.64C29.7399 76.84 30.1599 77.42 30.1599 78.06V82.27H30.1399Z" fill="#222222"/>
<path d="M44.84 22.66C44.33 22.66 43.84 22.41 43.56 21.94C42.43 20.08 41.97 18.23 42.19 16.44C42.4 14.79 43.12 13.7 43.76 12.73C44.29 11.93 44.71 11.3 44.83 10.39C44.98 9.22001 44.56 7.9 43.59 6.46C43.13 5.77 43.31 4.84 43.99 4.38C44.67 3.92 45.61 4.10001 46.07 4.78001C47.46 6.84 48.05 8.86001 47.8 10.77C47.59 12.37 46.88 13.45 46.25 14.39C45.71 15.21 45.28 15.85 45.16 16.81C45.02 17.91 45.34 19.11 46.11 20.37C46.54 21.08 46.32 22 45.61 22.43C45.37 22.58 45.1 22.65 44.83 22.65L44.84 22.66Z" fill="#222222"/>
<path d="M23.97 24.69C23.5 24.69 23.03 24.47 22.74 24.05C21.56 22.36 21.09 20.67 21.33 19.01C21.55 17.48 22.33 16.46 22.95 15.63C23.46 14.96 23.86 14.43 23.97 13.7C24.11 12.77 23.71 11.69 22.78 10.49C22.27 9.83 22.4 8.89 23.05 8.39C23.71 7.88 24.65 8.01 25.15 8.66C26.59 10.53 27.19 12.38 26.93 14.14C26.71 15.62 25.95 16.63 25.33 17.44C24.81 18.13 24.39 18.67 24.29 19.43C24.16 20.31 24.47 21.28 25.2 22.33C25.67 23.01 25.51 23.94 24.83 24.42C24.57 24.6 24.27 24.69 23.97 24.69Z" fill="#222222"/>
<path d="M65.71 24.69C65.24 24.69 64.77 24.47 64.48 24.05C63.3 22.36 62.83 20.67 63.07 19.01C63.29 17.48 64.07 16.46 64.69 15.63C65.2 14.96 65.6 14.43 65.71 13.7C65.85 12.77 65.45 11.69 64.52 10.49C64.01 9.83002 64.14 8.89002 64.79 8.39002C65.45 7.89002 66.39 8.01002 66.89 8.66002C68.33 10.53 68.93 12.38 68.67 14.14C68.45 15.62 67.69 16.63 67.07 17.44C66.55 18.13 66.13 18.67 66.03 19.43C65.9 20.31 66.21 21.28 66.94 22.33C67.41 23.01 67.25 23.94 66.57 24.42C66.31 24.6 66.01 24.69 65.71 24.69Z" fill="#222222"/>
<path d="M34.3201 71.69C33.8101 70.64 32.5401 70.19 31.4801 70.7C30.4201 71.21 29.9901 72.47 30.5001 73.53C31.0101 74.6 32.2801 75.03 33.3301 74.52C34.3801 74.01 34.8201 72.74 34.3101 71.69H34.3201Z" fill="white"/>
<path d="M26.78 71.14C26.42 71.14 26.05 71.04 25.73 70.84C23.58 69.51 21.64 67.88 19.96 66C17.96 63.76 16.37 61.21 15.22 58.43C14.8 57.41 15.29 56.24 16.31 55.82C17.33 55.4 18.5 55.89 18.92 56.91C19.89 59.28 21.25 61.44 22.94 63.34C24.36 64.93 26.01 66.32 27.84 67.45C28.78 68.03 29.07 69.27 28.48 70.2C28.1 70.81 27.45 71.14 26.78 71.14Z" fill="white"/>
</g>
<defs>
<clipPath id="clip0_488_92">
<rect width="90" height="90" fill="white"/>
</clipPath>
</defs>
</svg>
