<svg width="90" height="90" viewBox="0 0 90 90" fill="none" xmlns="http://www.w3.org/2000/svg">
<g clip-path="url(#clip0_473_175)">
<mask id="mask0_473_175" style="mask-type:luminance" maskUnits="userSpaceOnUse" x="0" y="0" width="90" height="90">
<path d="M90 0H0V90H90V0Z" fill="white"/>
</mask>
<g mask="url(#mask0_473_175)">
<path d="M58.45 54.48C63.14 59.46 67.83 64.45 72.51 69.43C72.64 69.2 74.64 65.97 78.39 65.87C81.33 65.79 84.21 67.67 85.12 70.54C85.76 72.57 85.63 75.74 83.2 77.44C81.27 78.79 78.54 78.74 76.43 77.26C76.6 77.48 78.34 79.76 77.5 82.6C76.85 84.8 74.9 86.45 72.69 86.69C69.7 87.02 67.34 84.64 66.46 82.42C65.53 80.08 66.02 77.35 67.71 75.3C62.02 71.45 56.32 67.59 50.63 63.74C53.24 60.65 55.85 57.56 58.45 54.47V54.48Z" fill="white"/>
<path d="M72.11 88.23C68.7 88.23 66.09 85.59 65.06 82.98C64.13 80.63 64.36 77.96 65.62 75.71L49.78 64.99C49.43 64.75 49.19 64.37 49.13 63.95C49.07 63.53 49.2 63.1 49.47 62.78L57.29 53.51C57.57 53.18 57.97 52.99 58.4 52.98C58.81 52.96 59.24 53.14 59.53 53.45L72.4 67.14C73.55 65.93 75.52 64.45 78.33 64.38C82.04 64.26 85.45 66.68 86.53 70.1C87.41 72.89 86.99 76.62 84.04 78.68C82.6 79.68 80.84 80.08 79.12 79.87C79.27 80.81 79.26 81.88 78.92 83.04C78.09 85.82 75.65 87.89 72.84 88.2C72.59 88.23 72.34 88.24 72.1 88.24L72.11 88.23ZM52.84 63.44L68.54 74.06C68.89 74.3 69.12 74.67 69.18 75.09C69.24 75.51 69.12 75.93 68.85 76.26C67.5 77.9 67.12 80.05 67.84 81.88C68.43 83.36 70.16 85.48 72.51 85.21C74.11 85.03 75.57 83.79 76.04 82.18C76.66 80.1 75.38 78.38 75.23 78.19C74.77 77.6 74.81 76.77 75.32 76.23C75.83 75.69 76.66 75.61 77.27 76.03C78.85 77.14 80.88 77.21 82.31 76.21C84.25 74.85 84.04 72.2 83.66 70.99C82.97 68.83 80.77 67.31 78.41 67.37C75.45 67.45 73.85 70.09 73.78 70.2C73.54 70.6 73.12 70.87 72.65 70.92C72.19 70.97 71.72 70.8 71.39 70.46L58.48 56.73L52.82 63.44H52.84Z" fill="#222222"/>
<path d="M65.51 54.3999C65.23 51.4499 63.7 50.3799 61.79 46.9899C57.17 38.7799 59.72 33.9299 57.39 25.8999C56.96 24.4199 53.34 12.5099 42.76 7.43995C33.37 2.93995 20.08 4.52995 11.69 13.2499C0.319968 25.0599 6.11997 42.2799 6.82997 44.2899C14.47 65.8799 44.9 76.2799 57.5 68.1099C61.04 65.8199 66.07 60.1799 65.51 54.3999Z" fill="#E2A069"/>
<path d="M46.42 72.3999C42.3 72.3999 37.74 71.6099 33.07 70.0199C19.73 65.4799 9.38996 56.0499 5.40996 44.7899C4.23996 41.4699 -1.03004 24.2899 10.61 12.2099C18.94 3.55994 32.74 0.979936 43.41 6.08994C54.23 11.2699 58.16 23.1499 58.84 25.4799C59.83 28.8799 59.98 31.6899 60.13 34.4099C60.34 38.2999 60.52 41.6599 63.11 46.2599C63.69 47.2899 64.24 48.1099 64.73 48.8399C65.83 50.4699 66.78 51.8799 67.01 54.2599C67.64 60.8099 62.16 66.8899 58.32 69.3699C55.21 71.3799 51.09 72.3999 46.42 72.3999ZM31.46 6.49994C25 6.49994 18.05 8.79994 12.77 14.2899C2.35996 25.0999 7.16996 40.7599 8.23996 43.7899C12.57 56.0399 24.41 63.8999 34.04 67.1799C43 70.2299 51.67 70.0999 56.68 66.8499C59.78 64.8399 64.51 59.7199 64.01 54.5399C63.85 52.9199 63.24 52.0099 62.23 50.5099C61.71 49.7399 61.12 48.8599 60.48 47.7299C57.55 42.5199 57.33 38.4799 57.12 34.5699C56.98 32.0199 56.84 29.3899 55.95 26.3199C55.33 24.2099 51.77 13.4199 42.11 8.79994C39.04 7.32994 35.34 6.49994 31.46 6.49994Z" fill="#222222"/>
<path d="M50.91 36.0499C49.74 36.0499 48.78 35.0999 48.78 33.9299C48.78 32.7599 49.72 31.8099 50.89 31.8099H50.9C52.07 31.8099 53.02 32.7599 53.02 33.9299C53.02 35.0999 52.07 36.0499 50.9 36.0499H50.91Z" fill="white"/>
<path d="M37.37 34.66C36.29 34.66 35.41 33.79 35.41 32.71C35.41 31.63 36.28 30.76 37.35 30.76H37.36C38.44 30.76 39.31 31.63 39.31 32.71C39.31 33.79 38.44 34.66 37.36 34.66H37.37Z" fill="#222222"/>
<path d="M55.6501 56.43C54.5701 56.43 53.6901 55.56 53.6901 54.48C53.6901 53.4 54.5601 52.53 55.6301 52.53H55.6401C56.7201 52.53 57.5901 53.4 57.5901 54.48C57.5901 55.56 56.7201 56.43 55.6401 56.43H55.6501Z" fill="#222222"/>
<path d="M39.32 61.16C38.24 61.16 37.36 60.29 37.36 59.21C37.36 58.13 38.23 57.26 39.3 57.26H39.31C40.39 57.26 41.26 58.13 41.26 59.21C41.26 60.29 40.39 61.16 39.31 61.16H39.32Z" fill="#222222"/>
<path d="M33.9001 48.78C32.8201 48.78 31.9401 47.91 31.9401 46.83C31.9401 45.75 32.8101 44.88 33.8801 44.88H33.8901C34.9701 44.88 35.8401 45.75 35.8401 46.83C35.8401 47.91 34.9701 48.78 33.8901 48.78H33.9001Z" fill="#222222"/>
<path d="M16.33 25.81C15.25 25.81 14.37 24.94 14.37 23.86C14.37 22.78 15.24 21.91 16.31 21.91H16.32C17.4 21.91 18.27 22.78 18.27 23.86C18.27 24.94 17.4 25.81 16.32 25.81H16.33Z" fill="#222222"/>
<path d="M17.12 43.27C16.04 43.27 15.16 42.4 15.16 41.32C15.16 40.24 16.03 39.37 17.1 39.37H17.11C18.19 39.37 19.06 40.24 19.06 41.32C19.06 42.4 18.19 43.27 17.11 43.27H17.12Z" fill="#222222"/>
<path d="M49.18 29.14C48.3 29.14 47.49 28.55 47.25 27.66C47 26.75 44.61 18.66 36.83 16.02C32.63 14.59 28.77 15.43 26.85 16.06C25.8 16.4 24.67 15.83 24.33 14.78C23.99 13.73 24.56 12.6 25.61 12.26C28.01 11.48 32.82 10.43 38.12 12.24C47.87 15.55 50.82 25.5 51.12 26.63C51.41 27.7 50.78 28.79 49.71 29.08C49.54 29.13 49.36 29.15 49.19 29.15L49.18 29.14Z" fill="white"/>
</g>
</g>
<defs>
<clipPath id="clip0_473_175">
<rect width="90" height="90" fill="white"/>
</clipPath>
</defs>
</svg>
