<svg width="90" height="90" viewBox="0 0 90 90" fill="none" xmlns="http://www.w3.org/2000/svg">
<g clip-path="url(#clip0_476_124)">
<path d="M85.4001 20.89H4.6001V78.9H85.4001V20.89Z" fill="#D16161"/>
<path d="M85.4001 80.4H4.6001C3.7701 80.4 3.1001 79.73 3.1001 78.9V20.89C3.1001 20.06 3.7701 19.39 4.6001 19.39H85.4001C86.2301 19.39 86.9001 20.06 86.9001 20.89V78.9C86.9001 79.73 86.2301 80.4 85.4001 80.4ZM6.1001 77.4H83.9001V22.39H6.1001V77.4Z" fill="#222222"/>
<path d="M79.7 72.8999C76.13 72.4399 72 72.1799 67.46 72.4399C57.57 72.9999 49.95 75.7599 45 78.0999V20.8899C48.13 18.9599 54.12 15.8199 62.39 14.7899C70.02 13.8399 76.21 15.1099 79.7 16.0899V72.8999Z" fill="white"/>
<path d="M45 79.6C44.72 79.6 44.44 79.52 44.2 79.37C43.77 79.1 43.5 78.62 43.5 78.1V20.89C43.5 20.37 43.77 19.89 44.21 19.61C49.62 16.27 55.84 14.09 62.2 13.3C68.15 12.56 74.34 13.03 80.1 14.65C80.75 14.83 81.19 15.42 81.19 16.09V72.9C81.19 73.33 81 73.74 80.68 74.03C80.36 74.31 79.92 74.45 79.5 74.39C75.48 73.87 71.46 73.72 67.54 73.94C59.82 74.38 52.45 76.23 45.63 79.46C45.43 79.56 45.21 79.6 44.99 79.6H45ZM46.5 21.74V75.78C53.06 72.98 60.07 71.36 67.38 70.94C70.94 70.74 74.57 70.83 78.2 71.21V17.25C73.13 15.97 67.76 15.64 62.58 16.28C56.92 16.98 51.38 18.87 46.5 21.74Z" fill="#222222"/>
<path d="M73.72 66.0699C70.68 66.1199 66.71 66.5099 62.32 67.7999C53.42 70.43 47.74 75.3399 45 78.0899V20.8899C46.94 18.8999 51.56 14.6899 59.14 12.4899C65.44 10.6499 70.87 11.0399 73.73 11.4399V66.0799L73.72 66.0699Z" fill="white"/>
<path d="M45 79.6C44.81 79.6 44.61 79.56 44.43 79.49C43.87 79.26 43.5 78.71 43.5 78.1V20.89C43.5 20.5 43.65 20.12 43.92 19.84C46.7 16.98 51.52 13.14 58.71 11.04C63.57 9.62004 68.83 9.24004 73.92 9.94004C74.66 10.04 75.22 10.68 75.22 11.43V66.07C75.22 66.89 74.56 67.56 73.75 67.57C69.98 67.64 66.28 68.2 62.75 69.24C54.76 71.6 49.27 75.93 46.07 79.15C45.78 79.44 45.4 79.59 45.01 79.59L45 79.6ZM46.5 21.51V74.68C50.05 71.67 55.14 68.36 61.89 66.37C65.22 65.39 68.69 64.8 72.22 64.63V12.76C67.95 12.34 63.6 12.74 59.55 13.92C53.34 15.73 49.08 18.96 46.49 21.5L46.5 21.51Z" fill="#222222"/>
<path d="M10.3 72.8999C13.87 72.4399 18 72.1799 22.54 72.4399C32.43 72.9999 40.05 75.7599 45 78.0999C45 59.0299 45 39.9599 45 20.8899C41.87 18.9599 35.8801 15.8199 27.6101 14.7899C19.9801 13.8399 13.79 15.1099 10.3 16.0899V72.8999Z" fill="white"/>
<path d="M45 79.6C44.78 79.6 44.5601 79.55 44.3601 79.46C37.5401 76.24 30.17 74.38 22.45 73.94C18.53 73.72 14.5 73.87 10.49 74.39C10.07 74.45 9.63005 74.31 9.31005 74.03C8.99005 73.74 8.80005 73.33 8.80005 72.9V16.09C8.80005 15.42 9.25005 14.83 9.89005 14.65C15.66 13.03 21.8401 12.56 27.7901 13.3C34.1501 14.09 40.37 16.27 45.78 19.61C46.22 19.88 46.4901 20.37 46.4901 20.89V78.1C46.4901 78.61 46.23 79.09 45.7901 79.37C45.55 79.52 45.2701 79.6 44.9901 79.6H45ZM18.93 70.84C20.17 70.84 21.4 70.87 22.62 70.94C29.92 71.35 36.93 72.98 43.5 75.78V21.74C38.62 18.87 33.08 16.99 27.42 16.28C22.24 15.64 16.87 15.97 11.8 17.25V71.22C14.19 70.97 16.57 70.84 18.93 70.84Z" fill="#222222"/>
<path d="M16.28 66.0701C19.32 66.1201 23.29 66.5101 27.68 67.8001C36.58 70.4301 42.26 75.3401 45 78.0901C45 59.0201 45 39.9501 45 20.8801C43.06 18.8901 38.44 14.6801 30.86 12.4801C24.56 10.6401 19.13 11.0301 16.27 11.4301C16.27 29.6401 16.27 47.8601 16.27 66.0701H16.28Z" fill="white"/>
<path d="M45 79.6C44.61 79.6 44.22 79.45 43.94 79.16C40.74 75.94 35.25 71.6 27.26 69.25C23.73 68.21 20.03 67.65 16.26 67.58C15.44 67.57 14.79 66.9 14.79 66.08V11.43C14.79 10.68 15.34 10.05 16.09 9.94004C21.18 9.24004 26.44 9.62004 31.3 11.04C38.49 13.14 43.31 16.98 46.09 19.84C46.36 20.12 46.51 20.5 46.51 20.89V78.1C46.51 78.71 46.14 79.26 45.58 79.49C45.4 79.57 45.2 79.6 45.01 79.6H45ZM17.78 64.62C21.31 64.8 24.78 65.38 28.11 66.36C34.86 68.35 39.96 71.66 43.5 74.67V21.51C40.92 18.97 36.65 15.74 30.44 13.93C26.39 12.75 22.04 12.35 17.77 12.77V64.63L17.78 64.62Z" fill="#222222"/>
</g>
<defs>
<clipPath id="clip0_476_124">
<rect width="90" height="90" fill="white"/>
</clipPath>
</defs>
</svg>
