<svg width="90" height="90" viewBox="0 0 90 90" fill="none" xmlns="http://www.w3.org/2000/svg">
<g clip-path="url(#clip0_563_339)">
<path d="M45 87.76C68.6157 87.76 87.76 68.6157 87.76 45C87.76 21.3843 68.6157 2.23999 45 2.23999C21.3843 2.23999 2.23999 21.3843 2.23999 45C2.23999 68.6157 21.3843 87.76 45 87.76Z" fill="#FFAEAE"/>
<path d="M45 89.26C20.59 89.26 0.73999 69.41 0.73999 45C0.73999 20.59 20.59 0.73999 45 0.73999C69.41 0.73999 89.26 20.6 89.26 45C89.26 69.4 69.4 89.26 45 89.26ZM45 3.73999C22.25 3.73999 3.73999 22.25 3.73999 45C3.73999 67.75 22.25 86.26 45 86.26C67.75 86.26 86.26 67.75 86.26 45C86.26 22.25 67.75 3.73999 45 3.73999Z" fill="#222222"/>
<path d="M64.24 42.66C66.1895 42.66 67.77 41.0795 67.77 39.13C67.77 37.1804 66.1895 35.6 64.24 35.6C62.2904 35.6 60.71 37.1804 60.71 39.13C60.71 41.0795 62.2904 42.66 64.24 42.66Z" fill="#222222"/>
<path d="M23.76 42.66C25.7095 42.66 27.29 41.0795 27.29 39.13C27.29 37.1804 25.7095 35.6 23.76 35.6C21.8104 35.6 20.23 37.1804 20.23 39.13C20.23 41.0795 21.8104 42.66 23.76 42.66Z" fill="#222222"/>
<path d="M67 61.2899C66.65 61.2899 66.29 61.1699 66 60.9099C56.21 52.2099 45.03 49.0199 37.53 52.7699C35.73 53.6699 34.1 54.9899 32.7 56.6899C32.17 57.3299 31.23 57.4199 30.59 56.8899C29.95 56.3599 29.86 55.4199 30.39 54.7799C32.07 52.7599 34.02 51.1799 36.19 50.0899C44.93 45.7199 57.12 48.9999 68 58.6699C68.62 59.2199 68.68 60.1699 68.12 60.7899C67.82 61.1199 67.41 61.2899 67 61.2899Z" fill="#222222"/>
<path d="M58.14 35.4C57.51 35.4 56.92 35 56.71 34.37C56.45 33.58 56.88 32.74 57.67 32.48L67.31 29.33C68.1 29.07 68.94 29.5 69.2 30.29C69.46 31.08 69.03 31.92 68.24 32.18L58.6 35.33C58.44 35.38 58.29 35.4 58.13 35.4H58.14Z" fill="#222222"/>
<path d="M42.66 40.31C43.3117 40.31 43.84 39.7816 43.84 39.13C43.84 38.4783 43.3117 37.95 42.66 37.95C42.0083 37.95 41.48 38.4783 41.48 39.13C41.48 39.7816 42.0083 40.31 42.66 40.31Z" fill="#222222"/>
<path d="M47.01 40.31C47.6616 40.31 48.19 39.7816 48.19 39.13C48.19 38.4783 47.6616 37.95 47.01 37.95C46.3583 37.95 45.83 38.4783 45.83 39.13C45.83 39.7816 46.3583 40.31 47.01 40.31Z" fill="#222222"/>
<path d="M30.07 34.3999C29.68 34.3999 29.3 34.2499 29.01 33.9599C28.08 33.0299 27.01 32.2799 25.81 31.7499C24.44 31.1399 22.91 30.8199 21.41 30.8199C20.58 30.8199 19.91 30.1499 19.91 29.3299C19.91 28.4999 20.57 27.8299 21.4 27.8199H21.46C23.38 27.8199 25.3 28.2299 27.04 29.0099C28.57 29.6999 29.95 30.6499 31.14 31.8499C31.72 32.4399 31.72 33.3899 31.14 33.9699C30.85 34.2599 30.47 34.4099 30.08 34.4099L30.07 34.3999Z" fill="#222222"/>
</g>
<defs>
<clipPath id="clip0_563_339">
<rect width="90" height="90" fill="white"/>
</clipPath>
</defs>
</svg>
