<svg width="90" height="90" viewBox="0 0 90 90" fill="none" xmlns="http://www.w3.org/2000/svg">
<g clip-path="url(#clip0_563_332)">
<path d="M45 87.76C68.6157 87.76 87.76 68.6157 87.76 45C87.76 21.3843 68.6157 2.23999 45 2.23999C21.3843 2.23999 2.23999 21.3843 2.23999 45C2.23999 68.6157 21.3843 87.76 45 87.76Z" fill="#DBDBDB"/>
<path d="M45 89.26C20.59 89.26 0.73999 69.41 0.73999 45C0.73999 20.59 20.59 0.73999 45 0.73999C69.41 0.73999 89.26 20.6 89.26 45C89.26 69.4 69.4 89.26 45 89.26ZM45 3.73999C22.25 3.73999 3.73999 22.25 3.73999 45C3.73999 67.75 22.25 86.26 45 86.26C67.75 86.26 86.26 67.75 86.26 45C86.26 22.25 67.75 3.73999 45 3.73999Z" fill="#222222"/>
<path d="M68.4001 46.69C65.3801 46.69 62.9301 44.24 62.9301 41.22C62.9301 38.2 65.3801 35.75 68.4001 35.75C71.4201 35.75 73.8701 38.2 73.8701 41.22C73.8701 44.24 71.4201 46.69 68.4001 46.69ZM68.4001 38.75C67.0401 38.75 65.9301 39.86 65.9301 41.22C65.9301 42.58 67.0401 43.69 68.4001 43.69C69.7601 43.69 70.8701 42.58 70.8701 41.22C70.8701 39.86 69.7601 38.75 68.4001 38.75Z" fill="#222222"/>
<path d="M21.6 46.69C18.58 46.69 16.13 44.24 16.13 41.22C16.13 38.2 18.58 35.75 21.6 35.75C24.62 35.75 27.07 38.2 27.07 41.22C27.07 44.24 24.62 46.69 21.6 46.69ZM21.6 38.75C20.24 38.75 19.13 39.86 19.13 41.22C19.13 42.58 20.24 43.69 21.6 43.69C22.96 43.69 24.07 42.58 24.07 41.22C24.07 39.86 22.96 38.75 21.6 38.75Z" fill="#222222"/>
<path d="M53.29 61.87H36.72C34.69 61.87 33.04 60.22 33.04 58.19C33.04 56.16 34.69 54.51 36.72 54.51H53.29C55.32 54.51 56.97 56.16 56.97 58.19C56.97 60.22 55.32 61.87 53.29 61.87ZM36.72 57.51C36.35 57.51 36.04 57.81 36.04 58.19C36.04 58.57 36.34 58.87 36.72 58.87H53.29C53.66 58.87 53.97 58.57 53.97 58.19C53.97 57.81 53.67 57.51 53.29 57.51H36.72Z" fill="#222222"/>
</g>
<defs>
<clipPath id="clip0_563_332">
<rect width="90" height="90" fill="white"/>
</clipPath>
</defs>
</svg>
