<svg width="90" height="90" viewBox="0 0 90 90" fill="none" xmlns="http://www.w3.org/2000/svg">
<g clip-path="url(#clip0_476_96)">
<mask id="mask0_476_96" style="mask-type:luminance" maskUnits="userSpaceOnUse" x="0" y="0" width="90" height="90">
<path d="M90 0H0V90H90V0Z" fill="white"/>
</mask>
<g mask="url(#mask0_476_96)">
<path d="M40.3101 18.26H49.6901C57.9501 18.26 64.6501 24.96 64.6501 33.22V34.56H25.3501V33.22C25.3501 24.96 32.0501 18.26 40.3101 18.26Z" fill="white"/>
<path d="M64.6501 36.05H25.3501C24.5201 36.05 23.8501 35.38 23.8501 34.55V33.21C23.8501 24.13 31.2301 16.75 40.3101 16.75H49.6901C58.7701 16.75 66.1501 24.13 66.1501 33.21V34.55C66.1501 35.38 65.4801 36.05 64.6501 36.05ZM26.8501 33.05H63.1501C63.0601 25.7 57.0601 19.75 49.6901 19.75H40.3101C32.9401 19.75 26.9401 25.7 26.8501 33.05Z" fill="#222222"/>
<path d="M50.3058 3.6999L45.3153 3.15601L37.8806 71.372L42.871 71.9159L50.3058 3.6999Z" fill="#CEAE7E"/>
<path d="M42.8701 73.41C42.8201 73.41 42.7601 73.41 42.7101 73.41L37.7201 72.87C37.3201 72.83 36.9601 72.63 36.7101 72.32C36.4601 72.01 36.3501 71.61 36.3901 71.22L43.8201 3.00001C43.8601 2.60001 44.0601 2.24001 44.3701 1.99001C44.6801 1.74001 45.0801 1.63001 45.4701 1.67001L50.4601 2.21001C51.2801 2.30001 51.8801 3.04001 51.7901 3.86001L44.3601 72.07C44.2801 72.84 43.6301 73.41 42.8701 73.41ZM39.5301 70.04L41.5401 70.26L48.6501 5.03001L46.6401 4.81001L39.5301 70.04Z" fill="#222222"/>
<path d="M67.34 34.55H22.67V38.9501H67.34V34.55Z" fill="white"/>
<path d="M67.33 40.4501H22.67C21.84 40.4501 21.17 39.7801 21.17 38.9501V34.55C21.17 33.72 21.84 33.05 22.67 33.05H67.34C68.17 33.05 68.84 33.72 68.84 34.55V38.9501C68.84 39.7801 68.17 40.4501 67.34 40.4501H67.33ZM24.16 37.4501H65.83V36.05H24.17V37.4501H24.16Z" fill="#222222"/>
<path d="M59.9901 86.7699H30.0101L25.3501 38.95H64.6501L59.9901 86.7699Z" fill="#84542D"/>
<path d="M59.99 88.27H30C29.23 88.27 28.58 87.68 28.51 86.92L23.85 39.1C23.81 38.68 23.95 38.26 24.23 37.95C24.51 37.64 24.92 37.46 25.34 37.46H64.64C65.06 37.46 65.47 37.64 65.75 37.95C66.03 38.26 66.17 38.68 66.13 39.1L61.47 86.92C61.39 87.69 60.75 88.27 59.98 88.27H59.99ZM31.36 85.27H58.63L63 40.45H27L31.36 85.27Z" fill="#222222"/>
<path d="M64.6501 36.05H25.3501C24.5201 36.05 23.8501 35.38 23.8501 34.55V33.21C23.8501 24.13 31.2301 16.75 40.3101 16.75H49.6901C58.7701 16.75 66.1501 24.13 66.1501 33.21V34.55C66.1501 35.38 65.4801 36.05 64.6501 36.05ZM26.8501 33.05H63.1501C63.0601 25.7 57.0601 19.75 49.6901 19.75H40.3101C32.9401 19.75 26.9401 25.7 26.8501 33.05Z" fill="#222222"/>
</g>
</g>
<defs>
<clipPath id="clip0_476_96">
<rect width="90" height="90" fill="white"/>
</clipPath>
</defs>
</svg>
