<svg width="90" height="90" viewBox="0 0 90 90" fill="none" xmlns="http://www.w3.org/2000/svg">
<g clip-path="url(#clip0_500_84)">
<path d="M57.62 31.59H30.19L24.09 37.58L43.01 41.58L57.62 31.59Z" fill="#BDD7F2"/>
<path d="M43.01 43.08C42.91 43.08 42.8 43.07 42.7 43.05L23.78 39.04C23.24 38.93 22.81 38.52 22.65 37.99C22.5 37.46 22.65 36.89 23.04 36.5L29.13 30.51C29.41 30.23 29.79 30.08 30.18 30.08H57.62C58.28 30.08 58.86 30.51 59.05 31.14C59.24 31.77 59.01 32.45 58.46 32.82L43.85 42.81C43.6 42.98 43.3 43.07 43 43.07L43.01 43.08ZM27.14 36.69L42.7 39.98L52.78 33.09H30.81L27.15 36.69H27.14Z" fill="#222222"/>
<path d="M18.1 54.28C28.75 44.46 38.3801 36.98 45.87 31.59C59.99 21.42 68.03 17.56 74.57 20.28C75.91 20.84 76.92 21.56 77.59 22.11C78.82 22.13 86.1701 22.3 87.3 25.66C88.16 28.21 85.01 31.36 83.66 32.71C73.76 42.62 29.56 62.28 15.33 68.51C11.07 61.72 6.81005 54.94 2.55005 48.15C4.21005 47.05 5.86005 45.94 7.52005 44.84C11.05 47.99 14.57 51.14 18.1 54.29V54.28Z" fill="#CDE2FB"/>
<path d="M15.3399 70.01C14.8399 70.01 14.3499 69.76 14.0699 69.31L1.27995 48.95C0.849947 48.26 1.03995 47.36 1.71995 46.9L6.68995 43.59C7.25995 43.21 8.00995 43.26 8.51995 43.72L18.0899 52.26C26.6799 44.41 35.7299 37.05 44.9999 30.37C58.7099 20.5 67.5799 15.74 75.16 18.89C76.21 19.33 77.2099 19.91 78.1399 20.62C81.7799 20.73 87.49 21.5 88.7299 25.18C89.88 28.61 86.27 32.23 84.7299 33.77C75.4699 43.04 37.6599 60.37 15.9399 69.88C15.7499 69.97 15.5399 70.01 15.3399 70.01ZM4.59995 48.59L15.9199 66.62C51.8899 50.82 76.1699 38.1 82.6099 31.65C83.5599 30.7 86.4499 27.81 85.8899 26.14C85.4099 24.71 81.9999 23.67 77.5799 23.61C77.24 23.61 76.9099 23.48 76.6399 23.27C75.8299 22.6 74.9399 22.06 73.9999 21.67C68.4899 19.38 61.3599 22.3 46.7499 32.82C37.2099 39.69 27.9199 47.28 19.1199 55.4C18.5499 55.92 17.6799 55.93 17.0999 55.42L7.37995 46.74L4.58995 48.6L4.59995 48.59Z" fill="#222222"/>
<path d="M65.6499 38.49L62.0499 75.61H54.2899C52.5899 66.49 50.8899 57.36 49.1899 48.24C54.6799 44.99 60.1699 41.74 65.6499 38.49Z" fill="#BDD7F2"/>
<path d="M62.05 77.11H54.29C53.57 77.11 52.95 76.59 52.82 75.88L47.72 48.51C47.6 47.89 47.89 47.27 48.43 46.95L64.89 37.2C65.38 36.91 65.98 36.92 66.46 37.22C66.94 37.52 67.2 38.07 67.15 38.63L63.55 75.75C63.47 76.52 62.83 77.1 62.06 77.1L62.05 77.11ZM55.53 74.11H60.69L63.88 41.28L50.86 48.99L55.54 74.11H55.53Z" fill="#222222"/>
</g>
<defs>
<clipPath id="clip0_500_84">
<rect width="90" height="90" fill="white"/>
</clipPath>
</defs>
</svg>
