<svg width="90" height="90" viewBox="0 0 90 90" fill="none" xmlns="http://www.w3.org/2000/svg">
<g clip-path="url(#clip0_493_84)">
<path d="M86.0599 66.11C86.0599 57.88 79.3899 51.2 71.1499 51.2C69.9599 51.2 68.8099 51.35 67.7099 51.62C64.2299 46.9 58.7799 43.85 52.6199 43.85C46.4599 43.85 41.1199 46.84 37.6399 51.46C35.3899 49.72 32.5799 48.67 29.5099 48.67C24.3199 48.67 19.8299 51.65 17.6399 55.99C16.8299 55.8 15.9899 55.69 15.1199 55.69C8.93994 55.69 3.93994 60.7 3.93994 66.87C3.93994 73.04 8.94994 78.05 15.1199 78.05C16.3499 78.05 17.5299 77.84 18.6399 77.48C21.0699 80.12 24.5499 81.79 28.4199 81.79C32.5199 81.79 36.1799 79.93 38.6199 77.02C42.0999 80.96 47.0799 83.44 52.6199 83.44C56.9999 83.44 61.0299 81.89 64.2399 79.3C66.3099 80.38 68.6499 81 71.1499 81C71.2399 81 71.3299 80.99 71.4299 80.99C71.5099 80.99 71.5799 80.99 71.6599 80.99C73.9499 80.99 76.0899 80.39 77.9599 79.34C82.7699 76.87 86.0699 71.87 86.0699 66.08L86.0599 66.11Z" fill="#B69EE5"/>
<path d="M52.6199 84.95C47.4299 84.95 42.4199 82.88 38.6299 79.21C35.8899 81.83 32.2499 83.3 28.4199 83.3C24.5899 83.3 20.9499 81.81 18.1999 79.18C17.1899 79.43 16.1599 79.56 15.1199 79.56C8.12994 79.56 2.43994 73.87 2.43994 66.88C2.43994 59.32 9.10994 53.23 16.8599 54.32C19.5299 49.88 24.2899 47.17 29.5199 47.17C32.3299 47.17 35.0099 47.95 37.3599 49.43C41.2599 44.91 46.7499 42.35 52.6299 42.35C58.5099 42.35 64.4199 45.11 68.3299 49.96C69.2899 49.79 70.2299 49.7 71.1599 49.7C80.2099 49.7 87.5699 57.06 87.5699 66.11C87.5699 72.28 84.1499 77.87 78.6499 80.7C76.5499 81.88 74.1199 82.51 71.6699 82.51C71.5999 82.51 71.5299 82.51 71.4699 82.51C71.3399 82.51 71.2599 82.52 71.1699 82.52C68.8599 82.52 66.5499 82.02 64.4399 81.07C60.9599 83.62 56.8999 84.96 52.6399 84.96L52.6199 84.95ZM38.6199 75.53C39.0499 75.53 39.4599 75.71 39.7399 76.04C43.1099 79.85 47.6799 81.96 52.6199 81.96C56.5099 81.96 60.1999 80.64 63.2999 78.15C63.7699 77.78 64.4099 77.71 64.9399 77.99C66.8799 79.01 68.9699 79.52 71.1499 79.52C71.2599 79.52 71.3299 79.51 71.3999 79.51C71.4499 79.51 71.5699 79.51 71.5999 79.51H71.6099C73.5999 79.51 75.5199 79.01 77.2099 78.06C81.7599 75.72 84.5499 71.15 84.5499 66.11C84.5499 58.72 78.5399 52.7 71.1399 52.7C70.1399 52.7 69.0999 52.83 68.0399 53.08C67.4499 53.22 66.8399 52.99 66.4899 52.51C63.1399 47.96 58.0799 45.35 52.6099 45.35C47.1399 45.35 42.1799 47.91 38.8299 52.37C38.5899 52.69 38.2299 52.9 37.8299 52.95C37.4299 53 37.0299 52.9 36.7099 52.65C34.6199 51.03 32.1299 50.17 29.4999 50.17C25.0299 50.17 20.9899 52.66 18.9699 56.67C18.6599 57.29 17.9699 57.61 17.2899 57.46C16.5499 57.29 15.8099 57.2 15.0999 57.2C9.75994 57.2 5.41994 61.54 5.41994 66.88C5.41994 72.22 9.75994 76.56 15.0999 76.56C16.1299 76.56 17.1499 76.39 18.1499 76.06C18.7099 75.87 19.3299 76.03 19.7299 76.47C21.9999 78.94 25.0799 80.29 28.3999 80.29C31.8999 80.29 35.1999 78.75 37.4499 76.06C37.7299 75.73 38.1399 75.53 38.5799 75.52H38.5999L38.6199 75.53Z" fill="#222222"/>
<path d="M22.09 11.03L25.38 17.68L32.72 18.75L27.41 23.93L28.66 31.24L22.09 27.79L15.53 31.24L16.78 23.93L11.47 18.75L18.81 17.68L22.09 11.03Z" fill="white"/>
<path d="M28.66 32.74C28.42 32.74 28.18 32.68 27.96 32.57L22.09 29.48L16.22 32.57C15.71 32.84 15.1 32.79 14.64 32.46C14.18 32.12 13.95 31.56 14.04 30.99L15.16 24.45L10.41 19.82C9.99996 19.42 9.84996 18.83 10.03 18.28C10.21 17.74 10.68 17.34 11.24 17.26L17.8 16.31L20.74 10.36C20.99 9.85002 21.51 9.52002 22.09 9.52002C22.67 9.52002 23.18 9.84002 23.44 10.36L26.38 16.31L32.94 17.26C33.5 17.34 33.97 17.74 34.15 18.28C34.33 18.82 34.18 19.42 33.77 19.82L29.02 24.45L30.14 30.99C30.24 31.55 30.01 32.12 29.54 32.46C29.28 32.65 28.97 32.75 28.66 32.75V32.74ZM22.09 26.29C22.33 26.29 22.57 26.35 22.79 26.46L26.67 28.5L25.93 24.18C25.85 23.69 26.01 23.2 26.36 22.85L29.5 19.79L25.16 19.16C24.67 19.09 24.25 18.78 24.03 18.34L22.09 14.41L20.15 18.34C19.93 18.78 19.51 19.09 19.02 19.16L14.68 19.79L17.82 22.85C18.17 23.19 18.34 23.69 18.25 24.18L17.51 28.5L21.39 26.46C21.61 26.35 21.85 26.29 22.09 26.29Z" fill="#222222"/>
<path d="M43.3 25.26L45.24 29.2L49.59 29.83L46.45 32.9L47.19 37.23L43.3 35.18L39.41 37.23L40.15 32.9L37.01 29.83L41.35 29.2L43.3 25.26Z" fill="white"/>
<path d="M39.41 38.73C39.1 38.73 38.79 38.63 38.53 38.44C38.07 38.1 37.84 37.54 37.93 36.97L38.54 33.42L35.96 30.9C35.55 30.5 35.4 29.91 35.58 29.36C35.76 28.82 36.23 28.42 36.79 28.34L40.36 27.82L41.96 24.59C42.21 24.08 42.73 23.75 43.31 23.75C43.89 23.75 44.4 24.07 44.66 24.59L46.26 27.82L49.83 28.34C50.39 28.42 50.86 28.82 51.04 29.36C51.22 29.9 51.07 30.5 50.66 30.9L48.08 33.42L48.69 36.97C48.79 37.53 48.56 38.1 48.09 38.44C47.63 38.78 47.02 38.82 46.51 38.55L43.32 36.87L40.13 38.55C39.91 38.67 39.67 38.72 39.43 38.72L39.41 38.73ZM43.3 33.69C43.54 33.69 43.78 33.75 44 33.86L45.2 34.49L44.97 33.16C44.89 32.67 45.05 32.18 45.4 31.83L46.37 30.88L45.03 30.69C44.54 30.62 44.12 30.31 43.9 29.87L43.3 28.65L42.7 29.87C42.48 30.31 42.06 30.62 41.57 30.69L40.23 30.88L41.2 31.83C41.55 32.17 41.72 32.67 41.63 33.16L41.4 34.5L42.6 33.87C42.82 33.76 43.06 33.7 43.3 33.7V33.69Z" fill="#222222"/>
<path d="M65.5899 44.1301C59.5699 63.3201 39.4999 68.2801 38.3899 68.5401C56.1999 73.33 74.6199 63.2801 79.1899 46.2701C83.7599 29.2701 72.8699 11.33 55.0599 6.55005C65.6199 16.44 69.7099 31.01 65.5899 44.14V44.1301Z" fill="#FFC524"/>
<path d="M47.4901 71.25C44.3601 71.25 41.1801 70.84 38.0001 69.99C37.3301 69.81 36.8801 69.2 36.8901 68.51C36.9001 67.82 37.3801 67.23 38.0501 67.08C38.8801 66.89 58.3301 62.23 64.1501 43.69C68.1301 31.03 64.2501 17.22 54.0201 7.64998C53.5201 7.17998 53.4001 6.42998 53.7301 5.82998C54.0601 5.22998 54.7601 4.92998 55.4301 5.10998C74.1301 10.14 85.4301 28.78 80.6201 46.67C76.6301 61.52 62.7601 71.26 47.4701 71.26L47.4901 71.25ZM44.3601 68.1C59.5301 69.54 73.8401 60.4 77.7401 45.88C81.6101 31.48 73.9701 16.53 60.3401 10.08C68.1701 20.01 70.7401 32.75 67.0201 44.58C62.6501 58.48 51.2901 65.2 44.3601 68.1Z" fill="#222222"/>
</g>
<defs>
<clipPath id="clip0_493_84">
<rect width="90" height="90" fill="white"/>
</clipPath>
</defs>
</svg>
