<svg width="90" height="90" viewBox="0 0 90 90" fill="none" xmlns="http://www.w3.org/2000/svg">
<g clip-path="url(#clip0_563_350)">
<path d="M45 87.76C68.6157 87.76 87.76 68.6157 87.76 45C87.76 21.3843 68.6157 2.23999 45 2.23999C21.3843 2.23999 2.23999 21.3843 2.23999 45C2.23999 68.6157 21.3843 87.76 45 87.76Z" fill="#FFD9E8"/>
<path d="M45 89.26C20.59 89.26 0.73999 69.41 0.73999 45C0.73999 20.59 20.59 0.73999 45 0.73999C69.41 0.73999 89.26 20.6 89.26 45C89.26 69.4 69.4 89.26 45 89.26ZM45 3.73999C22.25 3.73999 3.73999 22.25 3.73999 45C3.73999 67.75 22.25 86.26 45 86.26C67.75 86.26 86.26 67.75 86.26 45C86.26 22.25 67.75 3.73999 45 3.73999Z" fill="#222222"/>
<path d="M45.33 71.04C38.63 71.04 32.02 68.54 26.88 64C21.49 59.24 18.4 52.84 18.2 45.98C18.18 45.36 18.55 44.79 19.12 44.55C26.6 41.4 34.54 39.64 42.72 39.32C52.3 38.95 62.04 40.63 70.88 44.19C71.45 44.42 71.82 44.97 71.82 45.58C71.79 58.52 61.26 69.65 47.85 70.91C47.01 70.99 46.17 71.03 45.34 71.03L45.33 71.04ZM21.25 46.92C21.69 52.55 24.37 57.79 28.86 61.75C34.02 66.31 40.84 68.57 47.56 67.93C59.09 66.84 68.22 57.57 68.78 46.59C60.59 43.44 51.65 41.97 42.83 42.31C35.36 42.6 28.11 44.15 21.25 46.91V46.92Z" fill="#222222"/>
<path d="M62.29 64.52C61.81 64.52 61.33 64.29 61.04 63.85C56.92 57.68 49.96 54.18 42.88 54.73C34.29 55.39 29.26 61.78 28.33 63.06C27.85 63.73 26.91 63.88 26.24 63.4C25.57 62.91 25.42 61.98 25.9 61.31C27.39 59.25 32.98 52.49 42.65 51.75C50.81 51.13 58.82 55.13 63.53 62.2C63.99 62.89 63.8 63.82 63.12 64.28C62.86 64.45 62.57 64.53 62.29 64.53V64.52Z" fill="#222222"/>
<path d="M19.8 34.74C18.69 34.74 18.4 34.3 18.14 33.69C17.42 32.04 19 31.08 23.23 28.53C23.46 28.39 23.71 28.24 23.98 28.08C23.6 28.2 23.22 28.34 22.84 28.48C21.35 29.04 19.92 29.78 18.57 30.67C17.88 31.13 16.95 30.94 16.49 30.24C16.03 29.55 16.22 28.62 16.92 28.16C18.45 27.15 20.08 26.31 21.78 25.67C28.24 23.22 30.18 24.08 30.68 25.24C31.34 26.78 29.97 27.91 26.81 29.87C28.14 29.43 29.73 28.89 31.62 28.23C32.4 27.96 33.26 28.37 33.53 29.15C33.8 29.93 33.39 30.79 32.61 31.06C24.86 33.79 21.44 34.74 19.81 34.74H19.8Z" fill="#222222"/>
<path d="M70.2 34.74C68.57 34.74 65.15 33.79 57.4 31.06C56.62 30.78 56.21 29.93 56.48 29.15C56.76 28.37 57.61 27.96 58.39 28.23C60.28 28.9 61.87 29.44 63.2 29.87C60.04 27.92 58.67 26.78 59.33 25.24C59.83 24.08 61.77 23.22 68.23 25.67C69.92 26.31 71.56 27.15 73.08 28.16C73.77 28.62 73.96 29.55 73.51 30.24C73.05 30.93 72.12 31.12 71.43 30.67C70.09 29.78 68.65 29.05 67.16 28.48C66.78 28.34 66.4 28.2 66.02 28.08C66.28 28.24 66.54 28.39 66.77 28.53C71 31.08 72.58 32.03 71.86 33.69C71.59 34.3 71.3 34.74 70.19 34.74H70.2Z" fill="#222222"/>
</g>
<defs>
<clipPath id="clip0_563_350">
<rect width="90" height="90" fill="white"/>
</clipPath>
</defs>
</svg>
