<svg width="90" height="90" viewBox="0 0 90 90" fill="none" xmlns="http://www.w3.org/2000/svg">
<g clip-path="url(#clip0_488_84)">
<path d="M83.51 59.47C65.62 57.9 47.73 56.32 29.85 54.75C28.88 54.66 28.15 53.82 28.18 52.84C28.56 41.06 28.93 29.27 29.31 17.49C29.34 16.52 30.1 15.74 31.05 15.69C48.56 14.83 66.07 13.97 83.58 13.11C84.63 13.06 85.5 13.91 85.5 14.97V57.62C85.5 58.71 84.58 59.57 83.51 59.47Z" fill="#EAEAEA"/>
<path d="M83.67 60.9801C83.57 60.9801 83.48 60.9801 83.38 60.9701L29.72 56.2501C27.96 56.0901 26.62 54.5801 26.68 52.7901L27.81 17.4401C27.87 15.7001 29.26 14.2701 30.98 14.1901L83.51 11.6101C84.42 11.5601 85.29 11.8901 85.96 12.5201C86.62 13.1501 87 14.0401 87 14.9601V57.6101C87 58.5601 86.6 59.4601 85.91 60.1001C85.3 60.6601 84.49 60.9701 83.67 60.9701V60.9801ZM83.65 57.9801C83.76 57.9801 83.84 57.9401 83.89 57.9001C83.93 57.8601 84.01 57.7701 84.01 57.6201V14.9701C84.01 14.8301 83.94 14.7401 83.9 14.7001C83.85 14.6601 83.77 14.6101 83.67 14.6101L31.14 17.1901C30.97 17.1901 30.83 17.3501 30.82 17.5401L29.69 52.8901C29.69 53.0801 29.82 53.2501 30 53.2601L83.66 57.9801H83.65Z" fill="#222222"/>
<path d="M80.4 53.26C64.6 52.22 48.81 51.18 33.01 50.14C33.32 40.13 33.63 30.11 33.95 20.1C49.43 19.52 64.92 18.94 80.4 18.36V53.25V53.26Z" fill="#3F3F3F"/>
<path d="M80.4 54.76C80.4 54.76 80.33 54.76 80.3 54.76L32.91 51.64C32.1 51.59 31.48 50.9 31.51 50.1L32.45 20.06C32.47 19.27 33.11 18.64 33.89 18.61L80.34 16.87C80.75 16.86 81.14 17.01 81.44 17.29C81.73 17.57 81.9 17.96 81.9 18.37V53.27C81.9 53.69 81.73 54.08 81.43 54.36C81.15 54.62 80.78 54.77 80.4 54.77V54.76ZM34.56 48.74L78.9 51.66V19.92L35.4 21.55L34.55 48.74H34.56Z" fill="#222222"/>
<path d="M4.03995 70.79C22.53 73.85 41.02 76.9 59.5099 79.96C59.8899 80.02 60.28 79.92 60.58 79.69C68.27 73.71 75.96 67.74 83.66 61.76C84.63 61 84.17 59.46 82.93 59.35C65.06 57.82 47.1899 56.29 29.3099 54.75C29.0399 54.73 28.78 54.78 28.54 54.91C20.2299 59.36 11.92 63.81 3.60995 68.27C2.46995 68.88 2.74995 70.58 4.03995 70.79Z" fill="#EAEAEA"/>
<path d="M59.7401 81.48C59.5801 81.48 59.43 81.47 59.2701 81.44L3.80005 72.27C2.57005 72.07 1.64005 71.14 1.44005 69.92C1.24005 68.7 1.82005 67.53 2.91005 66.95L27.8401 53.59C28.3301 53.33 28.8901 53.21 29.4501 53.26L83.0601 57.86C84.2501 57.96 85.23 58.76 85.5601 59.9C85.8901 61.03 85.5101 62.23 84.5701 62.95L61.4901 80.88C60.9901 81.27 60.3601 81.48 59.7201 81.48H59.7401ZM4.72005 69.39L59.71 78.48L82.4401 60.83L29.2001 56.27L4.73005 69.4L4.72005 69.39Z" fill="#222222"/>
</g>
<defs>
<clipPath id="clip0_488_84">
<rect width="90" height="90" fill="white"/>
</clipPath>
</defs>
</svg>
