<svg width="90" height="90" viewBox="0 0 90 90" fill="none" xmlns="http://www.w3.org/2000/svg">
<g clip-path="url(#clip0_563_265)">
<path d="M30.17 51.67C25.89 51.67 22.42 48.62 22.42 44.86C22.42 41.1 25.89 38.05 30.17 38.05H75.81V32.49H28.19C20.9 32.49 14.98 37.69 14.98 44.1V45.62C14.98 52.03 20.89 57.23 28.19 57.23H75.8V51.67H30.17Z" fill="#64B264"/>
<path d="M75.8 58.72H28.19C20.08 58.72 13.48 52.84 13.48 45.61V44.09C13.48 36.86 20.08 30.98 28.19 30.98H75.8C76.63 30.98 77.3 31.65 77.3 32.48V38.04C77.3 38.87 76.63 39.54 75.8 39.54H30.17C26.73 39.54 23.92 41.92 23.92 44.85C23.92 47.78 26.72 50.16 30.17 50.16H75.81C76.64 50.16 77.31 50.83 77.31 51.66V57.22C77.31 58.05 76.64 58.72 75.81 58.72H75.8ZM28.19 33.99C21.73 33.99 16.48 38.53 16.48 44.1V45.62C16.48 51.19 21.73 55.73 28.19 55.73H74.3V53.17H30.17C25.07 53.17 20.92 49.44 20.92 44.86C20.92 40.28 25.07 36.55 30.17 36.55H74.31V33.99H28.19Z" fill="#222222"/>
<path d="M27.61 38.05H70.08V51.67H27.61C24.09 51.67 21.23 48.8101 21.23 45.2901V44.43C21.23 40.91 24.09 38.05 27.61 38.05Z" fill="white"/>
<path d="M70.08 53.17H27.61C23.26 53.17 19.73 49.6301 19.73 45.2901V44.43C19.73 40.08 23.27 36.55 27.61 36.55H70.08C70.91 36.55 71.58 37.22 71.58 38.05V51.67C71.58 52.5 70.91 53.17 70.08 53.17ZM27.61 39.55C24.92 39.55 22.73 41.74 22.73 44.43V45.2901C22.73 47.9801 24.92 50.17 27.61 50.17H68.58V39.55H27.61Z" fill="#222222"/>
<path d="M70.08 44.42H58.86C58.03 44.42 57.36 43.75 57.36 42.92C57.36 42.09 58.03 41.42 58.86 41.42H70.08C70.91 41.42 71.58 42.09 71.58 42.92C71.58 43.75 70.91 44.42 70.08 44.42Z" fill="#222222"/>
<path d="M59.0701 26.93C63.3501 26.93 66.8201 23.88 66.8201 20.12C66.8201 16.36 63.3501 13.31 59.0701 13.31H13.4301V7.75H61.0401C68.3301 7.75 74.2501 12.95 74.2501 19.36V20.88C74.2501 27.29 68.3401 32.49 61.0401 32.49H13.4301V26.93H59.0701Z" fill="#91B2E2"/>
<path d="M61.0401 33.99H13.4301C12.6001 33.99 11.9301 33.32 11.9301 32.49V26.93C11.9301 26.1 12.6001 25.43 13.4301 25.43H59.0701C62.5101 25.43 65.3201 23.05 65.3201 20.12C65.3201 17.19 62.5201 14.81 59.0701 14.81H13.4301C12.6001 14.81 11.9301 14.14 11.9301 13.31V7.75C11.9301 6.92 12.6001 6.25 13.4301 6.25H61.0401C69.1501 6.25 75.7501 12.13 75.7501 19.36V20.88C75.7501 28.11 69.1501 33.99 61.0401 33.99ZM14.9301 30.99H61.0401C67.5001 30.99 72.7501 26.45 72.7501 20.88V19.36C72.7501 13.79 67.5001 9.25 61.0401 9.25H14.9301V11.81H59.0701C64.1701 11.81 68.3201 15.54 68.3201 20.12C68.3201 24.7 64.1701 28.43 59.0701 28.43H14.9301V30.99Z" fill="#222222"/>
<path d="M61.62 26.9301L19.15 26.9301V13.3101L61.62 13.3101C65.14 13.3101 68 16.1701 68 19.6901V20.5501C68 24.0701 65.14 26.9301 61.62 26.9301Z" fill="white"/>
<path d="M61.62 28.4301H19.16C18.33 28.4301 17.66 27.7601 17.66 26.9301V13.3101C17.66 12.4801 18.33 11.8101 19.16 11.8101H61.63C65.98 11.8101 69.51 15.3501 69.51 19.6901V20.5501C69.51 24.9001 65.97 28.4301 61.63 28.4301H61.62ZM20.65 25.4301H61.62C64.31 25.4301 66.5 23.2401 66.5 20.5501V19.6901C66.5 17.0001 64.31 14.8101 61.62 14.8101H20.66V25.4301H20.65Z" fill="#222222"/>
<path d="M30.38 19.6899H19.16C18.33 19.6899 17.66 19.0199 17.66 18.1899C17.66 17.3599 18.33 16.6899 19.16 16.6899H30.38C31.21 16.6899 31.88 17.3599 31.88 18.1899C31.88 19.0199 31.21 19.6899 30.38 19.6899Z" fill="#222222"/>
<path d="M62.07 76.69C66.87 76.69 70.75 73.64 70.75 69.88C70.75 66.12 66.86 63.07 62.07 63.07H10.92V57.51H64.28C72.45 57.51 79.08 62.71 79.08 69.12V70.64C79.08 77.05 72.45 82.25 64.28 82.25H10.92V76.69H62.07Z" fill="#AD8457"/>
<path d="M64.28 83.75H10.92C10.09 83.75 9.42004 83.08 9.42004 82.25V76.69C9.42004 75.86 10.09 75.19 10.92 75.19H62.07C66.03 75.19 69.25 72.81 69.25 69.88C69.25 66.95 66.03 64.57 62.07 64.57H10.92C10.09 64.57 9.42004 63.9 9.42004 63.07V57.51C9.42004 56.68 10.09 56.01 10.92 56.01H64.28C73.27 56.01 80.58 61.89 80.58 69.12V70.64C80.58 77.87 73.27 83.75 64.28 83.75ZM12.42 80.75H64.28C71.61 80.75 77.58 76.21 77.58 70.64V69.12C77.58 63.55 71.61 59.01 64.28 59.01H12.42V61.57H62.07C67.68 61.57 72.25 65.3 72.25 69.88C72.25 74.46 67.68 78.19 62.07 78.19H12.42V80.75Z" fill="#222222"/>
<path d="M66.42 76.6899H17.41V63.0699L66.42 63.0699C69.94 63.0699 72.8 65.9299 72.8 69.4499V70.3099C72.8 73.8299 69.94 76.6899 66.42 76.6899Z" fill="white"/>
<path d="M66.42 78.1899H17.41C16.58 78.1899 15.91 77.5199 15.91 76.6899V63.0699C15.91 62.2399 16.58 61.5699 17.41 61.5699H66.42C70.77 61.5699 74.3 65.1099 74.3 69.4499V70.3099C74.3 74.6599 70.76 78.1899 66.42 78.1899ZM18.91 75.1899H66.42C69.11 75.1899 71.3 72.9999 71.3 70.3099V69.4499C71.3 66.7599 69.11 64.5699 66.42 64.5699H18.91V75.1899Z" fill="#222222"/>
<path d="M29.34 72.9H18.33C17.5 72.9 16.83 72.23 16.83 71.4C16.83 70.57 17.5 69.9 18.33 69.9H29.34C30.17 69.9 30.84 70.57 30.84 71.4C30.84 72.23 30.17 72.9 29.34 72.9Z" fill="#222222"/>
<path d="M38.9199 57.22C37.1699 55.02 35.4299 52.82 33.6799 50.62C31.9299 52.82 30.1899 55.02 28.4399 57.22V44.02H38.9199V57.22Z" fill="#EF7373"/>
<path d="M38.9199 58.72C38.4699 58.72 38.04 58.52 37.75 58.15L33.6899 53.03L29.6299 58.15C29.2299 58.65 28.5699 58.84 27.9599 58.63C27.3599 58.42 26.95 57.85 26.95 57.21V44.01C26.95 43.18 27.62 42.51 28.45 42.51H38.93C39.76 42.51 40.43 43.18 40.43 44.01V57.21C40.43 57.85 40.0299 58.42 39.4199 58.63C39.2599 58.69 39.09 58.71 38.93 58.71L38.9199 58.72ZM33.68 49.12C34.14 49.12 34.5699 49.33 34.8499 49.69L37.41 52.92V45.52H29.93V52.92L32.49 49.69C32.77 49.33 33.21 49.12 33.66 49.12H33.68Z" fill="#222222"/>
</g>
<defs>
<clipPath id="clip0_563_265">
<rect width="90" height="90" fill="white"/>
</clipPath>
</defs>
</svg>
