<svg width="90" height="90" viewBox="0 0 90 90" fill="none" xmlns="http://www.w3.org/2000/svg">
<g clip-path="url(#clip0_563_358)">
<path d="M45 87.76C68.6157 87.76 87.76 68.6157 87.76 45C87.76 21.3843 68.6157 2.23999 45 2.23999C21.3843 2.23999 2.23999 21.3843 2.23999 45C2.23999 68.6157 21.3843 87.76 45 87.76Z" fill="#B8CFF4"/>
<path d="M45 89.26C20.59 89.26 0.73999 69.41 0.73999 45C0.73999 20.59 20.59 0.73999 45 0.73999C69.41 0.73999 89.26 20.6 89.26 45C89.26 69.4 69.4 89.26 45 89.26ZM45 3.73999C22.25 3.73999 3.73999 22.25 3.73999 45C3.73999 67.75 22.25 86.26 45 86.26C67.75 86.26 86.26 67.75 86.26 45C86.26 22.25 67.75 3.73999 45 3.73999Z" fill="#222222"/>
<path d="M65.2399 52.31C64.8799 52.31 64.52 52.18 64.23 51.92C61.76 49.67 54.9599 44.46 45 44.46C44.92 44.46 44.85 44.46 44.77 44.46C34.92 44.54 28.2 49.7 25.77 51.92C25.16 52.48 24.21 52.43 23.65 51.82C23.09 51.21 23.14 50.26 23.75 49.7C26.44 47.25 33.86 41.54 44.75 41.46C44.83 41.46 44.92 41.46 45 41.46C56.02 41.46 63.52 47.21 66.25 49.7C66.86 50.26 66.91 51.21 66.3499 51.82C66.0499 52.14 65.6499 52.31 65.2399 52.31Z" fill="#222222"/>
<path d="M65.24 38.83C67.1895 38.83 68.77 37.2496 68.77 35.3C68.77 33.3505 67.1895 31.77 65.24 31.77C63.2904 31.77 61.71 33.3505 61.71 35.3C61.71 37.2496 63.2904 38.83 65.24 38.83Z" fill="#222222"/>
<path d="M24.76 38.83C26.7095 38.83 28.29 37.2496 28.29 35.3C28.29 33.3505 26.7095 31.77 24.76 31.77C22.8104 31.77 21.23 33.3505 21.23 35.3C21.23 37.2496 22.8104 38.83 24.76 38.83Z" fill="#222222"/>
</g>
<defs>
<clipPath id="clip0_563_358">
<rect width="90" height="90" fill="white"/>
</clipPath>
</defs>
</svg>
