<svg width="90" height="90" viewBox="0 0 90 90" fill="none" xmlns="http://www.w3.org/2000/svg">
<g clip-path="url(#clip0_563_365)">
<path d="M45 87.76C68.6157 87.76 87.76 68.6157 87.76 45C87.76 21.3843 68.6157 2.23999 45 2.23999C21.3843 2.23999 2.23999 21.3843 2.23999 45C2.23999 68.6157 21.3843 87.76 45 87.76Z" fill="#FFFC97"/>
<path d="M45 89.26C20.59 89.26 0.73999 69.41 0.73999 45C0.73999 20.59 20.59 0.73999 45 0.73999C69.41 0.73999 89.26 20.6 89.26 45C89.26 69.4 69.4 89.26 45 89.26ZM45 3.73999C22.25 3.73999 3.73999 22.25 3.73999 45C3.73999 67.75 22.25 86.26 45 86.26C67.75 86.26 86.26 67.75 86.26 45C86.26 22.25 67.75 3.73999 45 3.73999Z" fill="#222222"/>
<path d="M63.87 40.86C65.687 40.86 67.16 39.387 67.16 37.57C67.16 35.753 65.687 34.28 63.87 34.28C62.0529 34.28 60.58 35.753 60.58 37.57C60.58 39.387 62.0529 40.86 63.87 40.86Z" fill="#222222"/>
<path d="M26.13 40.86C27.947 40.86 29.42 39.387 29.42 37.57C29.42 35.753 27.947 34.28 26.13 34.28C24.3129 34.28 22.84 35.753 22.84 37.57C22.84 39.387 24.3129 40.86 26.13 40.86Z" fill="#222222"/>
<path d="M47.6599 62.79C39.2499 62.79 30.1099 58.23 23.1999 50.05C22.6699 49.42 22.7499 48.47 23.3799 47.94C24.0099 47.4 24.9599 47.48 25.4899 48.12C34.0399 58.24 46.6899 62.4 55.5799 58.01C60.1899 55.73 62.8599 51.56 64.2899 48.46C64.6399 47.71 65.5299 47.38 66.2799 47.73C67.0299 48.08 67.3599 48.97 67.0099 49.72C65.3799 53.26 62.3099 58.03 56.9099 60.7C54.0499 62.12 50.9099 62.8 47.6499 62.8L47.6599 62.79Z" fill="#222222"/>
</g>
<defs>
<clipPath id="clip0_563_365">
<rect width="90" height="90" fill="white"/>
</clipPath>
</defs>
</svg>
