<svg width="90" height="90" viewBox="0 0 90 90" fill="none" xmlns="http://www.w3.org/2000/svg">
<g clip-path="url(#clip0_491_84)">
<path d="M10.41 62.53H86.68L81.87 38.72H5.59998L10.41 62.53Z" fill="#EAEAEA"/>
<path d="M86.68 64.03H10.41C9.69997 64.03 9.07997 63.53 8.93997 62.83L4.12997 39.01C4.03997 38.57 4.14997 38.11 4.43997 37.76C4.71997 37.41 5.14997 37.21 5.59997 37.21H81.87C82.58 37.21 83.2 37.71 83.34 38.41L88.15 62.23C88.24 62.67 88.13 63.13 87.84 63.48C87.56 63.83 87.13 64.03 86.68 64.03ZM11.64 61.03H84.85L80.65 40.21H7.43997L11.64 61.03Z" fill="#222222"/>
<path d="M51.12 62.53H86.72C84.92 64.16 83.13 65.8 81.33 67.43C80.22 68.44 78.77 69 77.27 69H51.12V62.53Z" fill="#EAEAEA"/>
<path d="M77.27 70.5H51.12C50.29 70.5 49.62 69.83 49.62 69V62.53C49.62 61.7 50.29 61.03 51.12 61.03H86.72C87.34 61.03 87.9 61.41 88.12 61.99C88.34 62.57 88.19 63.22 87.73 63.64L82.34 68.54C80.95 69.8 79.15 70.5 77.28 70.5H77.27ZM52.62 67.5H77.27C78.4 67.5 79.48 67.08 80.32 66.32L82.84 64.03H52.62V67.5Z" fill="#222222"/>
<path d="M72.92 69H9.86002C5.99002 69 2.96002 65.68 3.31002 61.83L6.92002 22.11C7.23002 18.72 10.07 16.13 13.47 16.13H76.53C80.4 16.13 83.43 19.45 83.08 23.3L79.47 63.02C79.16 66.41 76.32 69 72.92 69Z" fill="#EAEAEA"/>
<path d="M72.92 70.5H9.85999C7.59999 70.5 5.41999 69.54 3.89999 67.87C2.36999 66.2 1.61999 63.95 1.81999 61.69L5.42999 21.97C5.80999 17.78 9.26999 14.63 13.47 14.63H76.53C78.79 14.63 80.97 15.59 82.49 17.26C84.02 18.93 84.77 21.18 84.57 23.44L80.96 63.16C80.58 67.35 77.12 70.5 72.92 70.5ZM13.47 17.64C10.83 17.64 8.65999 19.62 8.41999 22.26L4.80999 61.98C4.67999 63.42 5.13999 64.8 6.11999 65.86C7.08999 66.93 8.41999 67.51 9.86999 67.51H72.93C75.57 67.51 77.74 65.53 77.98 62.89L81.59 23.17C81.72 21.73 81.26 20.35 80.28 19.29C79.31 18.22 77.98 17.64 76.53 17.64H13.47Z" fill="#222222"/>
<path d="M70.64 64.26H12.3C9.89996 64.26 8.00996 62.32 8.22996 60.07L11.68 24.37C11.87 22.39 13.64 20.87 15.75 20.87H74.09C76.49 20.87 78.38 22.81 78.16 25.06L74.71 60.76C74.52 62.74 72.75 64.26 70.64 64.26Z" fill="#3F3F3F"/>
<path d="M70.64 65.76H12.3C10.68 65.76 9.13997 65.09 8.07997 63.92C7.06997 62.81 6.58997 61.39 6.73997 59.92L10.19 24.22C10.46 21.45 12.85 19.37 15.75 19.37H74.09C75.71 19.37 77.25 20.04 78.31 21.21C79.32 22.32 79.8 23.74 79.65 25.21L76.2 60.91C75.93 63.68 73.54 65.76 70.64 65.76ZM15.75 22.37C14.42 22.37 13.29 23.31 13.17 24.51L9.71997 60.21C9.65997 60.82 9.86997 61.42 10.3 61.9C10.79 62.44 11.52 62.76 12.3 62.76H70.64C71.97 62.76 73.1 61.82 73.22 60.62L76.67 24.92C76.73 24.31 76.52 23.71 76.09 23.23C75.6 22.69 74.87 22.37 74.09 22.37H15.75Z" fill="#222222"/>
<path d="M69.9 42.6499C69.65 41.6599 68.87 40.9599 67.94 40.7399C68.09 40.2799 68.12 39.7699 67.99 39.2599C67.63 37.8399 66.18 36.9799 64.76 37.3399C64.3 37.4599 63.9 37.6999 63.58 38.0099H63.23C62.76 37.2799 61.94 36.7999 61 36.7999C60.39 36.7999 59.84 37.0099 59.39 37.3499C59.33 35.9399 58.17 34.8199 56.75 34.8199C55.33 34.8199 54.21 35.9199 54.11 37.2999C53.68 36.9899 53.15 36.7999 52.57 36.7999C51.1 36.7999 49.91 37.9899 49.91 39.4599C49.91 39.9099 50.03 40.3199 50.23 40.6899C50.12 40.6799 50.02 40.6599 49.91 40.6599C48.44 40.6599 47.25 41.8499 47.25 43.3199C47.25 44.7899 48.44 45.9799 49.91 45.9799C49.95 45.9799 49.98 45.9799 50.02 45.9799C50.71 46.9999 51.93 47.8899 52.91 48.3899C53.6 48.7399 54.15 48.8999 57.59 49.2699C62.62 49.8199 63.81 49.7599 65.13 49.3999C66.42 49.0499 67.76 48.6799 68.29 47.4999C68.54 46.9499 68.54 46.3299 68.42 45.7299C69.55 45.1999 70.19 43.9299 69.87 42.6699L69.9 42.6499Z" fill="#FFEFCC"/>
<path d="M62.9 51.1601C61.71 51.1601 60.07 51.0301 57.47 50.7401C53.91 50.3501 53.2 50.1801 52.27 49.7001C51.81 49.4601 50.38 48.6701 49.29 47.4101C47.31 47.1001 45.79 45.3701 45.79 43.3101C45.79 41.5501 46.89 40.0401 48.45 39.4301C48.46 37.1501 50.32 35.2901 52.61 35.2901C52.82 35.2901 53.02 35.3101 53.23 35.3401C53.96 34.1201 55.29 33.3101 56.79 33.3101C58.29 33.3101 59.64 34.1201 60.36 35.3501C61.51 35.1601 62.71 35.4801 63.61 36.1901C63.87 36.0601 64.14 35.9601 64.41 35.8901C65.48 35.6201 66.6 35.7801 67.56 36.3401C68.52 36.9001 69.19 37.8101 69.47 38.8901C69.55 39.2001 69.59 39.5101 69.6 39.8301C70.47 40.3901 71.11 41.2601 71.38 42.2901C71.78 43.8501 71.23 45.4601 70.06 46.4701C70.06 47.0501 69.95 47.6001 69.72 48.1101C68.91 49.9301 67.07 50.4401 65.59 50.8401C64.81 51.0501 64.07 51.1701 62.92 51.1701L62.9 51.1601ZM50.06 44.4501C50.56 44.4501 51.02 44.6901 51.3 45.1101C51.82 45.8801 52.85 46.6301 53.64 47.0301C54.08 47.2601 54.47 47.3901 57.8 47.7601C62.68 48.3001 63.72 48.2201 64.78 47.9301C65.74 47.6701 66.73 47.4001 66.97 46.8701C67.09 46.6101 67.05 46.2601 67 46.0201C66.86 45.3401 67.2 44.6501 67.83 44.3501C68.33 44.1201 68.6 43.5601 68.46 43.0201C68.36 42.6101 68.03 42.3001 67.61 42.1901C67.2 42.0901 66.86 41.8301 66.65 41.4601C66.45 41.0901 66.4 40.6601 66.53 40.2601C66.6 40.0401 66.61 39.8301 66.56 39.6201C66.48 39.3201 66.3 39.0701 66.03 38.9101C65.76 38.7501 65.45 38.7101 65.15 38.7801C64.97 38.8301 64.8 38.9301 64.64 39.0701C64.36 39.3401 63.99 39.4901 63.6 39.4901H63.25C62.74 39.4901 62.27 39.2301 61.99 38.8101C61.77 38.4801 61.41 38.2801 61.02 38.2801C60.71 38.2801 60.47 38.4101 60.33 38.5201C59.89 38.8601 59.29 38.9201 58.79 38.6901C58.28 38.4501 57.95 37.9601 57.93 37.4001C57.9 36.7801 57.4 36.3001 56.78 36.3001C56.16 36.3001 55.68 36.7701 55.64 37.3801C55.6 37.9201 55.28 38.4001 54.79 38.6301C54.3 38.8601 53.72 38.8101 53.28 38.5001C53.14 38.4001 52.91 38.2801 52.61 38.2801C51.97 38.2801 51.45 38.8001 51.45 39.4401C51.45 39.6101 51.5 39.7901 51.59 39.9701C51.85 40.4601 51.82 41.0601 51.5 41.5201C51.18 41.9801 50.64 42.2201 50.08 42.1601C50.07 42.1601 49.98 42.1501 49.96 42.1501C49.29 42.1501 48.78 42.6701 48.78 43.3001C48.78 43.9301 49.27 44.4301 49.88 44.4501C49.91 44.4501 49.94 44.4501 49.97 44.4501C50 44.4501 50.02 44.4501 50.05 44.4501H50.06Z" fill="#222222"/>
<path d="M68.9501 78.85H48.4201L46.1801 45.65H71.1901L68.9501 78.85Z" fill="#FFE49F"/>
<path d="M56.69 46.42H52.01V78.08H56.69V46.42Z" fill="#EA5347"/>
<path d="M65.3601 46.42H60.6801V78.08H65.3601V46.42Z" fill="#EA5347"/>
<path d="M68.9501 80.35H48.4301C47.6401 80.35 46.9901 79.74 46.9301 78.95L44.6901 45.75C44.6601 45.34 44.8101 44.93 45.0901 44.62C45.3701 44.31 45.7701 44.14 46.1901 44.14H71.1901C71.6101 44.14 72.0001 44.31 72.2901 44.62C72.5801 44.93 72.7201 45.33 72.6901 45.75L70.4501 78.95C70.4001 79.74 69.7401 80.35 68.9501 80.35ZM49.8301 77.35H67.5501L69.5901 47.15H47.8001L49.8401 77.35H49.8301Z" fill="#222222"/>
</g>
<defs>
<clipPath id="clip0_491_84">
<rect width="90" height="90" fill="white"/>
</clipPath>
</defs>
</svg>
