<svg width="90" height="90" viewBox="0 0 90 90" fill="none" xmlns="http://www.w3.org/2000/svg">
<g clip-path="url(#clip0_473_199)">
<mask id="mask0_473_199" style="mask-type:luminance" maskUnits="userSpaceOnUse" x="0" y="0" width="90" height="90">
<path d="M90 0H0V90H90V0Z" fill="white"/>
</mask>
<g mask="url(#mask0_473_199)">
<path d="M46.61 4.12H35.98C35.1 4.12 34.38 5.33 34.38 6.83V9.87C34.38 11.37 35.1 12.58 35.98 12.58H46.61C47.49 12.58 48.21 11.37 48.21 9.87V6.83C48.21 5.33 47.49 4.12 46.61 4.12Z" fill="#3D913D"/>
<path d="M46.61 14.08H35.98C34.21 14.08 32.88 12.27 32.88 9.87V6.83C32.88 4.43 34.21 2.62 35.98 2.62H46.61C48.38 2.62 49.71 4.43 49.71 6.83V9.87C49.71 12.27 48.38 14.08 46.61 14.08ZM36.18 11.08H46.42C46.53 10.91 46.71 10.5 46.71 9.87V6.83C46.71 6.21 46.53 5.79 46.42 5.62H36.18C36.06 5.79 35.89 6.2 35.89 6.83V9.87C35.89 10.49 36.07 10.91 36.18 11.08Z" fill="#222222"/>
<path d="M53.09 40.69C53.18 40.44 53.18 40.16 53.04 39.9L48.76 31.75C48.21 25.51 47.67 19.27 47.12 13.03H35.49C34.94 19.27 34.4 25.51 33.85 31.75C32.42 34.47 31 37.18 29.57 39.9C29.43 40.16 29.43 40.44 29.52 40.69H29.46V82.25C29.46 84.26 30.98 85.89 32.86 85.89H49.77C51.65 85.89 53.17 84.26 53.17 82.25V40.69H53.11H53.09Z" fill="#6BDB63"/>
<path d="M49.75 87.38H32.84C30.14 87.38 27.94 85.08 27.94 82.24V40.68C27.94 40.63 27.94 40.58 27.94 40.52C27.9 40.06 28 39.61 28.22 39.19L32.36 31.31L33.97 12.89C34.04 12.12 34.69 11.52 35.46 11.52H47.09C47.87 11.52 48.52 12.11 48.58 12.89L50.19 31.31L54.33 39.19C54.55 39.61 54.64 40.07 54.61 40.52C54.61 40.57 54.61 40.62 54.61 40.68V82.24C54.61 85.07 52.41 87.38 49.71 87.38H49.75ZM30.94 41.11V82.24C30.94 83.42 31.79 84.38 32.84 84.38H49.75C50.8 84.38 51.65 83.42 51.65 82.24V41.03C51.59 40.83 51.58 40.61 51.61 40.41L47.42 32.44C47.33 32.26 47.27 32.07 47.25 31.87L45.73 14.52H36.85L35.33 31.87C35.31 32.07 35.26 32.26 35.16 32.44L30.97 40.41C31.01 40.64 31 40.89 30.93 41.11H30.94Z" fill="#222222"/>
<path d="M44.7901 47.1H29.4401V70.24H44.7901V47.1Z" fill="#F9FFF8"/>
<path d="M44.7901 71.74H29.4501C28.6201 71.74 27.9501 71.07 27.9501 70.24V47.1C27.9501 46.27 28.6201 45.6 29.4501 45.6H44.7901C45.6201 45.6 46.2901 46.27 46.2901 47.1V70.24C46.2901 71.07 45.6201 71.74 44.7901 71.74ZM30.9501 68.74H43.2901V48.6H30.9501V68.74Z" fill="#222222"/>
<path d="M65.6 85.88H51.76L49.62 68.89H67.75L65.6 85.88Z" fill="#F9FFF8"/>
<path d="M65.6 87.38H51.76C51 87.38 50.37 86.82 50.27 86.07L48.12 69.08C48.07 68.65 48.2 68.22 48.48 67.9C48.76 67.58 49.17 67.39 49.6 67.39H67.74C68.17 67.39 68.58 67.58 68.86 67.9C69.15 68.22 69.28 68.65 69.22 69.08L67.07 86.07C66.98 86.82 66.34 87.38 65.58 87.38H65.6ZM53.08 84.38H64.27L66.04 70.39H51.31L53.08 84.38Z" fill="#222222"/>
</g>
</g>
<defs>
<clipPath id="clip0_473_199">
<rect width="90" height="90" fill="white"/>
</clipPath>
</defs>
</svg>
