<svg width="90" height="90" viewBox="0 0 90 90" fill="none" xmlns="http://www.w3.org/2000/svg">
<g clip-path="url(#clip0_1046_320)">
<path d="M18.59 24.63H80.46C83.2 24.63 85.43 26.86 85.43 29.6V52.66C85.43 55.4 83.2 57.63 80.46 57.63H9.84C7.1 57.63 4.87 55.4 4.87 52.66V38.35C4.87 30.78 11.02 24.63 18.59 24.63Z" fill="#6196FF"/>
<path d="M80.45 59.13H9.84C6.27 59.13 3.37 56.23 3.37 52.66V38.35C3.37 29.96 10.2 23.13 18.59 23.13H80.46C84.03 23.13 86.93 26.03 86.93 29.6V52.66C86.93 56.23 84.03 59.13 80.46 59.13H80.45ZM18.59 26.13C11.85 26.13 6.37 31.61 6.37 38.35V52.66C6.37 54.58 7.93 56.13 9.84 56.13H80.45C82.37 56.13 83.92 54.57 83.92 52.66V29.6C83.92 27.68 82.36 26.13 80.45 26.13H18.59Z" fill="#222222"/>
<path d="M29.1 64.51C33.452 64.51 36.98 60.982 36.98 56.63C36.98 52.278 33.452 48.75 29.1 48.75C24.748 48.75 21.22 52.278 21.22 56.63C21.22 60.982 24.748 64.51 29.1 64.51Z" fill="#878787"/>
<path d="M29.1 66.01C23.93 66.01 19.72 61.8 19.72 56.63C19.72 51.46 23.93 47.25 29.1 47.25C34.27 47.25 38.48 51.46 38.48 56.63C38.48 61.8 34.27 66.01 29.1 66.01ZM29.1 50.25C25.58 50.25 22.72 53.11 22.72 56.63C22.72 60.15 25.58 63.01 29.1 63.01C32.62 63.01 35.48 60.15 35.48 56.63C35.48 53.11 32.62 50.25 29.1 50.25Z" fill="#222222"/>
<path d="M29.1 59.23C30.5359 59.23 31.7 58.066 31.7 56.63C31.7 55.1941 30.5359 54.03 29.1 54.03C27.6641 54.03 26.5 55.1941 26.5 56.63C26.5 58.066 27.6641 59.23 29.1 59.23Z" fill="#878787"/>
<path d="M29.1 60.73C26.84 60.73 25 58.89 25 56.63C25 54.37 26.84 52.53 29.1 52.53C31.36 52.53 33.2 54.37 33.2 56.63C33.2 58.89 31.36 60.73 29.1 60.73ZM29.1 55.53C28.49 55.53 28 56.02 28 56.63C28 57.24 28.49 57.73 29.1 57.73C29.71 57.73 30.2 57.24 30.2 56.63C30.2 56.02 29.71 55.53 29.1 55.53Z" fill="#222222"/>
<path d="M63.35 64.51C67.702 64.51 71.23 60.982 71.23 56.63C71.23 52.278 67.702 48.75 63.35 48.75C58.998 48.75 55.47 52.278 55.47 56.63C55.47 60.982 58.998 64.51 63.35 64.51Z" fill="#878787"/>
<path d="M63.35 66.01C58.18 66.01 53.97 61.8 53.97 56.63C53.97 51.46 58.18 47.25 63.35 47.25C68.52 47.25 72.73 51.46 72.73 56.63C72.73 61.8 68.52 66.01 63.35 66.01ZM63.35 50.25C59.83 50.25 56.97 53.11 56.97 56.63C56.97 60.15 59.83 63.01 63.35 63.01C66.87 63.01 69.73 60.15 69.73 56.63C69.73 53.11 66.87 50.25 63.35 50.25Z" fill="#222222"/>
<path d="M63.35 59.23C64.7859 59.23 65.95 58.066 65.95 56.63C65.95 55.1941 64.7859 54.03 63.35 54.03C61.9141 54.03 60.75 55.1941 60.75 56.63C60.75 58.066 61.9141 59.23 63.35 59.23Z" fill="#878787"/>
<path d="M63.35 60.73C61.09 60.73 59.25 58.89 59.25 56.63C59.25 54.37 61.09 52.53 63.35 52.53C65.61 52.53 67.45 54.37 67.45 56.63C67.45 58.89 65.61 60.73 63.35 60.73ZM63.35 55.53C62.74 55.53 62.25 56.02 62.25 56.63C62.25 57.24 62.74 57.73 63.35 57.73C63.96 57.73 64.45 57.24 64.45 56.63C64.45 56.02 63.96 55.53 63.35 55.53Z" fill="#222222"/>
<path d="M48.6 31.16H38.77V42.76H48.6V31.16Z" fill="#CAF9FF"/>
<path d="M48.6 44.26H38.77C37.94 44.26 37.27 43.59 37.27 42.76V31.16C37.27 30.33 37.94 29.66 38.77 29.66H48.6C49.43 29.66 50.1 30.33 50.1 31.16V42.76C50.1 43.59 49.43 44.26 48.6 44.26ZM40.27 41.26H47.1V32.66H40.27V41.26Z" fill="#222222"/>
<path d="M18.31 31.16H27.5V42.76H11.08V38.39C11.08 34.4 14.32 31.16 18.31 31.16Z" fill="#CAF9FF"/>
<path d="M27.5 44.26H11.08C10.25 44.26 9.57996 43.59 9.57996 42.76V38.39C9.57996 33.57 13.5 29.66 18.31 29.66H27.5C28.33 29.66 29 30.33 29 31.16V42.76C29 43.59 28.33 44.26 27.5 44.26ZM12.58 41.26H26V32.66H18.31C15.15 32.66 12.58 35.23 12.58 38.39V41.26Z" fill="#222222"/>
<path d="M58.43 31.16H48.6V42.76H58.43V31.16Z" fill="#CAF9FF"/>
<path d="M58.43 44.26H48.6C47.77 44.26 47.1 43.59 47.1 42.76V31.16C47.1 30.33 47.77 29.66 48.6 29.66H58.43C59.26 29.66 59.93 30.33 59.93 31.16V42.76C59.93 43.59 59.26 44.26 58.43 44.26ZM50.1 41.26H56.93V32.66H50.1V41.26Z" fill="#222222"/>
<path d="M68.2601 31.16H58.4301V42.76H68.2601V31.16Z" fill="#CAF9FF"/>
<path d="M68.2601 44.26H58.4301C57.6001 44.26 56.9301 43.59 56.9301 42.76V31.16C56.9301 30.33 57.6001 29.66 58.4301 29.66H68.2601C69.0901 29.66 69.7601 30.33 69.7601 31.16V42.76C69.7601 43.59 69.0901 44.26 68.2601 44.26ZM59.9301 41.26H66.7601V32.66H59.9301V41.26Z" fill="#222222"/>
<path d="M78.09 31.16H68.26V42.76H78.09V31.16Z" fill="#CAF9FF"/>
<path d="M78.1 44.26H68.27C67.44 44.26 66.77 43.59 66.77 42.76V31.16C66.77 30.33 67.44 29.66 68.27 29.66H78.1C78.93 29.66 79.6 30.33 79.6 31.16V42.76C79.6 43.59 78.93 44.26 78.1 44.26ZM69.77 41.26H76.6V32.66H69.77V41.26Z" fill="#222222"/>
<path d="M4.87 48.44H10.37C11.59 48.44 12.58 49.43 12.58 50.65C12.58 51.87 11.59 52.86 10.37 52.86H4.87V48.43V48.44Z" fill="#FFEDCF"/>
<path d="M10.37 54.36H4.87C4.04 54.36 3.37 53.69 3.37 52.86V48.44C3.37 47.61 4.04 46.94 4.87 46.94H10.37C12.42 46.94 14.08 48.61 14.08 50.65C14.08 52.69 12.41 54.36 10.37 54.36ZM6.37 51.36H10.37C10.76 51.36 11.08 51.04 11.08 50.65C11.08 50.26 10.76 49.94 10.37 49.94H6.37V51.36Z" fill="#222222"/>
<path d="M85.4301 52.86H79.9301C78.7101 52.86 77.7201 51.87 77.7201 50.65C77.7201 49.43 78.7101 48.44 79.9301 48.44H85.4301V52.87V52.86Z" fill="#FFEDCF"/>
<path d="M85.43 54.36H79.93C77.88 54.36 76.22 52.69 76.22 50.65C76.22 48.61 77.89 46.94 79.93 46.94H85.43C86.26 46.94 86.93 47.61 86.93 48.44V52.86C86.93 53.69 86.26 54.36 85.43 54.36ZM79.93 49.94C79.54 49.94 79.22 50.26 79.22 50.65C79.22 51.04 79.54 51.36 79.93 51.36H83.93V49.94H79.93Z" fill="#222222"/>
</g>
<defs>
<clipPath id="clip0_1046_320">
<rect width="90" height="90" fill="white"/>
</clipPath>
</defs>
</svg>
