<svg width="90" height="90" viewBox="0 0 90 90" fill="none" xmlns="http://www.w3.org/2000/svg">
<g clip-path="url(#clip0_563_84)">
<path d="M38.23 51.57C37.68 51.57 37.15 51.27 36.89 50.74C36.78 50.52 36.73 50.29 36.73 50.07C36.73 49.52 37.03 48.99 37.56 48.73C38.3 48.36 39.2 48.66 39.57 49.4C39.68 49.62 39.73 49.85 39.73 50.07C39.73 50.62 39.43 51.15 38.9 51.41C38.68 51.52 38.46 51.57 38.23 51.57Z" fill="#222222"/>
<path d="M43.5501 45.21V43.71L42.6201 44.88C42.1201 44.48 41.9301 43.81 42.1401 43.21C42.3501 42.61 42.9201 42.21 43.5501 42.21V43.71L44.4901 42.54C44.9901 42.94 45.1801 43.61 44.9701 44.21C44.7601 44.81 44.1901 45.21 43.5601 45.21H43.5501Z" fill="#222222"/>
<path d="M77.4499 39.25C75.3299 40.1 72.1499 41.51 68.5499 43.71C59.1199 49.45 57.5599 53.99 47.5399 61.96C43.0999 65.49 38.6699 68.96 32.0499 71.72C24.6899 74.79 18.0199 75.58 13.5699 75.75C13.7799 76.08 14.1199 76.55 14.6099 77.06C19.8699 82.46 31.1499 79.28 34.6899 78.28C53.2099 73.06 53.6199 61.38 72.4899 51.32C74.7199 50.13 80.4499 47.24 80.3199 43.54C80.2599 41.65 78.6899 40.16 77.4599 39.25H77.4499Z" fill="#D3DAE0"/>
<path d="M23.68 81.63C19.94 81.63 16.15 80.8 13.53 78.11C13.07 77.64 12.66 77.12 12.3 76.57C12.01 76.12 11.98 75.54 12.23 75.07C12.48 74.59 12.96 74.28 13.5 74.26C19.79 74.01 25.83 72.69 31.46 70.34C38.03 67.6 42.39 64.13 46.6 60.79C50.87 57.4 53.62 54.59 56.05 52.12C59.38 48.72 62.26 45.79 67.77 42.43C70.67 40.67 73.73 39.13 76.89 37.86C77.37 37.66 77.93 37.74 78.35 38.05C80.58 39.72 81.75 41.55 81.82 43.5C81.97 48 76.22 51.05 73.45 52.52L73.19 52.66C64.89 57.09 60.35 61.74 55.95 66.23C50.66 71.64 45.66 76.76 35.1 79.74C32.95 80.35 28.36 81.64 23.69 81.64L23.68 81.63ZM16.92 77.03C20.3 79.2 26.12 79.14 34.27 76.85C44.06 74.09 48.58 69.47 53.8 64.13C58.14 59.69 63.07 54.65 71.77 50.01L72.03 49.87C73.91 48.87 78.89 46.23 78.8 43.6C78.77 42.62 78 41.7 77.18 40.98C74.46 42.12 71.82 43.47 69.31 44.99C64.12 48.15 61.36 50.96 58.17 54.22C55.68 56.76 52.86 59.63 48.45 63.14C44.28 66.45 39.56 70.21 32.6 73.11C27.63 75.18 22.37 76.5 16.9 77.03H16.92Z" fill="#222222"/>
<path d="M47.54 61.96C57.56 53.99 59.13 49.45 68.55 43.71C72.15 41.52 75.33 40.1 77.45 39.25C77.65 37.62 77.71 35.49 77.24 33.09C76.03 26.93 72.11 23.09 70.45 21.63C68.12 23.59 62.74 28.66 60.28 37.12C58.58 42.95 58.97 47.96 59.42 50.85C58.97 47.96 58.58 42.94 60.28 37.12C62.75 28.65 68.12 23.59 70.45 21.63C70.25 21.18 66.07 11.8 59.84 11.87C59.14 11.87 57.24 11.9 56.23 13.16C54.41 15.43 57.81 18.73 56.45 22.48C55.26 25.75 50.96 28.02 48.38 27.15C48.37 29.37 48.12 32.59 47 36.25C46.63 37.45 46.17 38.7 45.59 39.98C44.98 41.33 44.29 42.57 43.56 43.71C41.91 46.3 40.05 48.4 38.24 50.06C36.11 52.02 34.08 53.37 32.64 54.23C32.26 54.45 31.91 54.65 31.62 54.81C30.11 55.64 27.33 56.88 23.7 56.97C21.8 57.02 20.18 56.73 18.96 56.41C18.44 56.81 18.02 57.12 17.75 57.33C13.66 60.39 10.91 61.36 9.97997 64.71C9.00997 68.2 10.73 73.05 13.59 75.75C18.04 75.57 24.71 74.79 32.07 71.72C38.7 68.95 43.13 65.48 47.56 61.96H47.54Z" fill="#7693D3"/>
<path d="M13.56 77.26C13.18 77.26 12.81 77.11 12.53 76.85C9.14 73.65 7.41 68.26 8.51 64.32C9.36 61.26 11.46 59.84 14.12 58.04C14.93 57.49 15.85 56.87 16.83 56.14C17.1 55.94 17.52 55.63 18.02 55.23C18.39 54.95 18.87 54.85 19.32 54.97C20.74 55.34 22.19 55.51 23.64 55.48C26.13 55.42 28.63 54.74 30.88 53.5C31.16 53.35 31.49 53.16 31.85 52.94C33.76 51.81 35.56 50.47 37.2 48.96C39.15 47.16 40.86 45.13 42.27 42.91V42.89C43.04 41.7 43.67 40.54 44.21 39.36C44.73 38.22 45.18 37.02 45.55 35.81C46.4 33.02 46.85 30.11 46.86 27.14C46.86 26.66 47.1 26.21 47.49 25.93C47.88 25.65 48.39 25.58 48.84 25.73C50.61 26.33 54.1 24.48 55.01 21.97C55.52 20.56 55.12 19.17 54.7 17.69C54.2 15.94 53.63 13.96 55.03 12.22C56.49 10.4 58.97 10.37 59.79 10.37H59.87C66.48 10.37 70.82 18.93 71.66 20.72C73.88 22.73 77.5 26.8 78.69 32.8C79.12 34.96 79.19 37.19 78.92 39.43C78.85 39.97 78.5 40.43 77.99 40.64C74.99 41.85 72.07 43.31 69.31 44.99C65.39 47.38 62.86 49.56 60.48 51.89C60.45 51.92 60.43 51.94 60.4 51.97C59.66 52.7 58.93 53.44 58.17 54.21C55.68 56.75 52.86 59.62 48.45 63.13C44.28 66.44 39.56 70.2 32.6 73.1C26.64 75.59 20.25 76.98 13.6 77.25C13.58 77.25 13.56 77.25 13.54 77.25L13.56 77.26ZM19.29 58.05C19.02 58.25 18.8 58.42 18.63 58.55C17.59 59.32 16.64 59.97 15.8 60.53C13.13 62.33 11.93 63.21 11.4 65.13C10.65 67.81 11.88 71.77 14.16 74.24C20.21 73.93 26.03 72.62 31.47 70.35C38.04 67.61 42.4 64.14 46.61 60.8C50.88 57.41 53.63 54.6 56.06 52.13C56.66 51.52 57.24 50.92 57.83 50.34C57.64 48.88 57.54 47.41 57.54 45.94C57.54 42.81 57.98 39.69 58.84 36.72C60.97 29.4 65.17 24.36 68.61 21.26C67.14 18.39 63.74 13.38 59.86 13.38C59.34 13.38 57.97 13.4 57.4 14.11C57.01 14.59 57.17 15.32 57.61 16.88C58.09 18.57 58.7 20.68 57.85 23.01C56.69 26.2 53 28.72 49.82 28.84C49.67 31.52 49.2 34.16 48.43 36.7C48.02 38.03 47.52 39.35 46.95 40.61C46.36 41.91 45.67 43.17 44.86 44.47C44.83 44.51 44.81 44.56 44.78 44.6C43.25 46.99 41.41 49.19 39.31 51.13C39.29 51.15 39.27 51.17 39.25 51.19C37.45 52.84 35.48 54.31 33.39 55.54C32.99 55.78 32.63 55.98 32.33 56.15C29.67 57.61 26.69 58.42 23.72 58.49C22.24 58.52 20.75 58.38 19.29 58.06V58.05ZM60.53 45.93C60.53 46.52 60.55 47.11 60.58 47.7C62.53 45.97 64.75 44.26 67.77 42.42C70.41 40.81 73.19 39.4 76.05 38.2C76.17 36.57 76.08 34.95 75.77 33.38C74.87 28.84 72.33 25.56 70.42 23.65C67.32 26.49 63.62 31.02 61.72 37.54C60.93 40.24 60.54 43.08 60.54 45.92L60.53 45.93Z" fill="#222222"/>
<path d="M44.7599 24.18C43.2999 23.4 40.8899 22.73 39.2399 23.54C36.8699 24.72 36.8699 28.62 36.4799 31.39C35.6399 37.36 32.3199 42.78 28.6799 47.14C25.0499 51.48 21.0899 54.75 18.9399 56.42C20.1599 56.74 21.7799 57.02 23.6799 56.98C27.3199 56.89 30.0899 55.65 31.5999 54.82C31.8899 54.66 32.2399 54.46 32.6199 54.24C34.0599 53.38 36.0899 52.03 38.2199 50.07C40.0199 48.41 41.8899 46.31 43.5399 43.72C44.2699 42.57 44.9599 41.34 45.5699 39.99C46.1499 38.71 46.6099 37.46 46.9799 36.26C48.0999 32.61 48.3499 29.39 48.3599 27.16C46.8299 26.64 46.9399 25.35 44.7499 24.19L44.7599 24.18Z" fill="#D3DAE0"/>
<path d="M23.28 58.48C21.7 58.48 20.11 58.27 18.57 57.87C18.02 57.72 17.6 57.28 17.48 56.72C17.36 56.16 17.58 55.58 18.03 55.23C20.53 53.3 24.19 50.17 27.5 46.22C27.52 46.19 27.55 46.16 27.58 46.13C31.83 41.05 34.32 36.02 35 31.19C35.06 30.75 35.11 30.29 35.17 29.81C35.48 27.02 35.86 23.56 38.58 22.21C40.74 21.14 43.64 21.89 45.47 22.87C46.86 23.61 47.52 24.42 48.01 25.01C48.39 25.48 48.53 25.63 48.86 25.74C49.47 25.95 49.88 26.52 49.88 27.17C49.86 30.42 49.37 33.63 48.44 36.69C48.03 38.02 47.53 39.34 46.96 40.6C46.36 41.92 45.66 43.2 44.83 44.52C43.28 46.96 41.4 49.2 39.26 51.18C37.46 52.83 35.49 54.3 33.4 55.54C33 55.78 32.64 55.98 32.34 56.15C29.68 57.61 26.7 58.42 23.73 58.49C23.58 58.49 23.44 58.49 23.29 58.49L23.28 58.48ZM22.5 55.46C22.88 55.48 23.27 55.49 23.65 55.47C26.14 55.41 28.64 54.73 30.89 53.49C31.17 53.34 31.5 53.15 31.86 52.93C33.77 51.8 35.57 50.46 37.21 48.95C39.16 47.15 40.87 45.12 42.28 42.9C43.04 41.7 43.67 40.54 44.22 39.35C44.74 38.21 45.19 37.01 45.56 35.8C46.33 33.3 46.76 30.69 46.85 28.05C46.33 27.69 45.99 27.26 45.68 26.9C45.28 26.42 44.91 25.96 44.05 25.5C42.76 24.81 40.92 24.38 39.9 24.88C38.65 25.5 38.36 28.07 38.14 30.13C38.08 30.64 38.03 31.14 37.96 31.6C37.2 37.01 34.46 42.56 29.83 48.1C29.83 48.1 29.83 48.1 29.82 48.11C27.37 51.03 24.74 53.52 22.49 55.45L22.5 55.46Z" fill="#222222"/>
<path d="M45.44 44.06C44.16 42.99 41.89 41.37 38.65 40.38C35.82 39.52 33.37 39.48 31.79 39.58C32.73 37.87 33.67 36.16 34.61 34.45C36.22 34.56 38.11 34.8 40.17 35.32C43.58 36.18 46.29 37.48 48.26 38.63C47.32 40.44 46.38 42.24 45.45 44.05L45.44 44.06Z" fill="#F9F9F9"/>
<path d="M45.44 45.56C45.09 45.56 44.75 45.44 44.48 45.21C42.63 43.66 40.52 42.52 38.21 41.81C36.16 41.19 34.03 40.94 31.88 41.07C31.33 41.1 30.81 40.84 30.52 40.38C30.23 39.92 30.21 39.33 30.47 38.85L33.29 33.72C33.57 33.21 34.12 32.92 34.7 32.95C36.66 33.08 38.62 33.39 40.53 33.87C43.5 34.62 46.35 35.79 49.01 37.34C49.7 37.74 49.9501 38.62 49.5801 39.33L46.7701 44.75C46.5601 45.15 46.18 45.44 45.73 45.53C45.63 45.55 45.53 45.56 45.44 45.56ZM34.32 38.08C35.93 38.18 37.5301 38.47 39.0801 38.94C41.18 39.58 43.14 40.53 44.93 41.78L46.25 39.24C44.2 38.17 42.03 37.34 39.8 36.78C38.38 36.42 36.92 36.17 35.45 36.03L34.32 38.09V38.08Z" fill="#222222"/>
<path d="M37.14 54.02C36.02 52.98 34.36 51.67 32.12 50.56C29.57 49.3 27.25 48.78 25.63 48.55C26.75 47.26 27.87 45.98 28.99 44.69C30.57 44.81 32.86 45.16 35.42 46.21C38.12 47.32 40.07 48.78 41.3 49.86C39.91 51.25 38.53 52.63 37.14 54.02Z" fill="#F9F9F9"/>
<path d="M37.1399 55.52C36.7699 55.52 36.4099 55.39 36.1199 55.12C34.7199 53.83 33.1499 52.75 31.4499 51.9C29.5499 50.96 27.5199 50.33 25.4199 50.03C24.8799 49.95 24.4199 49.58 24.2299 49.07C24.0399 48.56 24.1399 47.98 24.4999 47.56L27.8599 43.7C28.1699 43.34 28.6199 43.15 29.0999 43.19C31.4699 43.37 33.7899 43.92 35.9899 44.82C38.2899 45.77 40.4099 47.08 42.2799 48.73C42.5899 49 42.7799 49.39 42.7899 49.81C42.7999 50.22 42.6399 50.63 42.3499 50.92L38.1899 55.08C37.8999 55.37 37.5099 55.52 37.1299 55.52H37.1399ZM28.4599 47.59C29.9499 47.98 31.3999 48.53 32.7899 49.22C34.3099 49.98 35.7499 50.9 37.0699 51.97L39.0599 49.98C37.7599 49.02 36.3499 48.22 34.8499 47.6C33.1699 46.91 31.4099 46.46 29.6199 46.25L28.4599 47.59Z" fill="#222222"/>
</g>
<defs>
<clipPath id="clip0_563_84">
<rect width="90" height="90" fill="white"/>
</clipPath>
</defs>
</svg>
