<svg width="24" height="24" viewBox="0 0 24 24" fill="none" xmlns="http://www.w3.org/2000/svg">
<g clip-path="url(#clip0_186_605)">
<path d="M12 21.8899C17.4621 21.8899 21.89 17.462 21.89 11.9999C21.89 6.53777 17.4621 2.10986 12 2.10986C6.53789 2.10986 2.10999 6.53777 2.10999 11.9999C2.10999 17.462 6.53789 21.8899 12 21.8899Z" fill="#FFD85A"/>
<path d="M16.59 12.8399C17.64 13.6099 17.94 15.4599 17.34 16.8899C16.89 17.9699 15.87 18.9099 14.69 19.0899C13.36 19.2799 13.08 18.3099 11.04 17.8899C8.83996 17.4299 7.94996 18.3699 6.89996 17.5199C6.14996 16.9199 5.73996 15.8599 5.80996 14.8399C5.86996 13.8799 6.35996 12.8499 7.19996 12.3399C8.41996 11.6099 9.26996 12.7499 11.96 12.8799C14.69 13.0199 15.55 12.0799 16.59 12.8499V12.8399Z" fill="#E84989"/>
<path d="M9.49001 8.77998C9.49001 9.63998 8.80001 10.33 7.94001 10.33C7.08001 10.33 6.39001 9.63998 6.39001 8.77998C6.39001 7.91998 7.08001 7.22998 7.94001 7.22998C8.80001 7.22998 9.49001 7.91998 9.49001 8.77998Z" fill="white" stroke="#222222" stroke-miterlimit="10"/>
<path d="M17.9 9.5998C17.9 10.4598 17.21 11.1498 16.35 11.1498C15.49 11.1498 14.8 10.4598 14.8 9.5998C14.8 8.7398 15.49 8.0498 16.35 8.0498C17.21 8.0498 17.9 8.7398 17.9 9.5998Z" fill="white" stroke="#222222" stroke-miterlimit="10"/>
</g>
<defs>
<clipPath id="clip0_186_605">
<path d="M0 12C0 5.37258 5.37258 0 12 0C18.6274 0 24 5.37258 24 12V24H0V12Z" fill="white"/>
</clipPath>
</defs>
</svg>
